{
.appVersion = "3260";
.formatVersion = 3;
DisplayStrings = (
abcdefghijklmnopqrstuvwxyz1230,
"0123456789",
ABCDEFGHIJKLMNOPQRSTUVWXYZ0123456789
);
axes = (
{
name = Roll;
tag = ROLL;
}
);
date = "2024-05-10 05:59:13 +0000";
familyName = Snail;
fontMaster = (
{
axesValues = (
0
);
id = m002;
metricValues = (
{
over = 16;
pos = 800;
},
{
over = 16;
pos = 700;
},
{
over = 16;
pos = 500;
},
{
over = -16;
},
{
over = -16;
pos = -200;
},
{
}
);
name = Snail;
},
{
axesValues = (
50
);
id = m003;
metricValues = (
{
over = 16;
pos = 800;
},
{
over = 16;
pos = 700;
},
{
over = 16;
pos = 500;
},
{
over = -16;
},
{
over = -16;
pos = -200;
},
{
}
);
name = Circle;
},
{
axesValues = (
100
);
id = m004;
metricValues = (
{
over = 16;
pos = 800;
},
{
over = 16;
pos = 700;
},
{
over = 16;
pos = 500;
},
{
over = -16;
},
{
over = -16;
pos = -200;
},
{
}
);
name = Circle;
}
);
glyphs = (
{
glyphname = A;
lastChange = "2024-05-10 19:53:24 +0000";
layers = (
{
layerId = m002;
shapes = (
{
closed = 1;
nodes = (
(340,1.5,o),
(398,20.5,o),
(440,66,cs),
(458,85.5,o),
(469.5,119,o),
(469.5,148,cs),
(469.5,218.5,o),
(421,276,o),
(356,289.5,c),
(367,280,o),
(374,266,o),
(374,250.5,cs),
(374,223,o),
(348.5,200,o),
(324,200,cs),
(296,200,o),
(273.5,222.5,o),
(273.5,250.5,cs),
(273.5,265.5,o),
(280,283.5,o),
(300,295,cs),
(303.5,297,ls),
(315,303.5,o),
(324.5,305.5,o),
(338.5,305.5,cs),
(418.5,305.5,o),
(465.5,242,o),
(481,195.5,c),
(489.5,170,o),
(489.5,152,o),
(487,111.5,c),
(508.5,149,o),
(527.5,210,o),
(527.5,256.5,cs),
(527.5,397,o),
(413.5,511,o),
(273,511,cs),
(132,511,o),
(18,397,o),
(18,256.5,cs),
(18,115.5,o),
(132,1.5,o),
(273,1.5,cs)
);
},
{
closed = 1;
nodes = (
(529,145,o),
(546,462.5,o),
(472,238.5,c),
(469,191.5,o),
(526,152.5,o),
(435,1.5,c),
(530.5,1,l)
);
}
);
width = 550;
},
{
layerId = m003;
shapes = (
{
closed = 1;
nodes = (
(338.5,0,o),
(378.5,17.5,o),
(423,45,cs),
(453.5,64,o),
(495,107.5,o),
(495,136.5,cs),
(495,207,o),
(419.5,274.5,o),
(354.5,288,c),
(365.5,278.5,o),
(372.5,264.5,o),
(372.5,249,cs),
(372.5,221,o),
(350.5,198.5,o),
(322.5,198.5,cs),
(294.5,198.5,o),
(244,227,o),
(272,218.5,cs),
(363,190,o),
(320,296.5,o),
(298.5,293.5,cs),
(252.5,287,ls),
(215.5,282,o),
(202,153.5,o),
(216,153.5,cs),
(296,153.5,o),
(464,240.5,o),
(479.5,194,c),
(488,168.5,o),
(488,150.5,o),
(485.5,110,c),
(507,147.5,o),
(526,208.5,o),
(526,255,cs),
(526,395.5,o),
(412,509.5,o),
(271.5,509.5,cs),
(130.5,509.5,o),
(16.5,395.5,o),
(16.5,255,cs),
(16.5,114,o),
(130.5,0,o),
(271.5,0,cs)
);
},
{
closed = 1;
nodes = (
(493,329,o),
(498.5,393,o),
(470.5,237,c),
(467.5,190,o),
(410.5,180,o),
(319.5,29,c),
(494.5,185,l)
);
}
);
width = 550;
},
{
layerId = m004;
shapes = (
{
closed = 1;
nodes = (
(359,0,o),
(399,17.5,o),
(443.5,45,cs),
(474,64,o),
(515.5,107.5,o),
(515.5,136.5,cs),
(515.5,207,o),
(440,274.5,o),
(375,288,c),
(386,278.5,o),
(393,264.5,o),
(393,249,cs),
(393,221,o),
(371,198.5,o),
(343,198.5,cs),
(315,198.5,o),
(264.5,227,o),
(292.5,218.5,cs),
(383.5,190,o),
(340.5,296.5,o),
(319,293.5,cs),
(273,287,ls),
(236,282,o),
(222.5,153.5,o),
(236.5,153.5,cs),
(316.5,153.5,o),
(484.5,240.5,o),
(500,194,c),
(508.5,168.5,o),
(508.5,150.5,o),
(506,110,c),
(527.5,147.5,o),
(546.5,208.5,o),
(546.5,255,cs),
(546.5,395.5,o),
(432.5,509.5,o),
(292,509.5,cs),
(151,509.5,o),
(37,395.5,o),
(37,255,cs),
(37,114,o),
(151,0,o),
(292,0,cs)
);
},
{
closed = 1;
nodes = (
(513.5,329,o),
(519,393,o),
(491,237,c),
(488,190,o),
(431,180,o),
(340,29,c),
(515,185,l)
);
}
);
width = 550;
}
);
unicode = (65,97);
},
{
glyphname = B;
lastChange = "2024-05-23 11:50:20 +0000";
layers = (
{
layerId = m002;
shapes = (
{
closed = 1;
nodes = (
(420,0,o),
(534,114,o),
(534,254.5,cs),
(534,395.5,o),
(420,509.5,o),
(279,509.5,cs),
(212,509.5,o),
(154,490.5,o),
(112,445,cs),
(94,425.5,o),
(82.5,392,o),
(82.5,363,cs),
(82.5,292.5,o),
(131,235,o),
(196,221.5,c),
(185,231,o),
(178,245,o),
(178,260.5,cs),
(178,288.5,o),
(200,311,o),
(228,311,cs),
(256,311,o),
(278.5,288.5,o),
(278.5,260.5,cs),
(278.5,245.5,o),
(272,227.5,o),
(252,216,cs),
(248.5,214,ls),
(237,207.5,o),
(227.5,205.5,o),
(213.5,205.5,cs),
(133.5,205.5,o),
(86.5,269,o),
(71,315.5,c),
(62.5,341,o),
(62.5,359,o),
(65,399.5,c),
(43.5,362,o),
(24.5,301,o),
(24.5,254.5,cs),
(24.5,114,o),
(138.5,0,o),
(279,0,cs)
);
},
{
closed = 1;
nodes = (
(83,319.5,o),
(26,358.5,o),
(117,509.5,c),
(21.5,510,l),
(23,366,o),
(6,48.5,o),
(80,272.5,c)
);
}
);
width = 550;
},
{
layerId = m003;
shapes = (
{
closed = 1;
nodes = (
(416.5,0,o),
(530.5,114,o),
(530.5,254.5,cs),
(530.5,395.5,o),
(416.5,509.5,o),
(275.5,509.5,cs),
(208.5,509.5,o),
(150.5,490.5,o),
(108.5,445,cs),
(90.5,425.5,o),
(79,392,o),
(79,363,cs),
(79,168.5,o),
(279.5,190.5,o),
(262.5,262,cs),
(245.5,334.5,o),
(174.5,277,o),
(174.5,260.5,cs),
(174.5,288.5,o),
(196.5,311,o),
(224.5,311,cs),
(252.5,311,o),
(275,288.5,o),
(275,260.5,cs),
(275,245.5,o),
(272.5,219.5,o),
(252.5,208,cs),
(249,206,ls),
(237.5,199.5,o),
(224,193.5,o),
(210,193.5,cs),
(130,193.5,o),
(89,236,o),
(73.5,282.5,cs),
(65,308,o),
(59,359,o),
(61.5,399.5,c),
(40,362,o),
(21,301,o),
(21,254.5,cs),
(21,114,o),
(135,0,o),
(275.5,0,cs)
);
},
{
closed = 1;
nodes = (
(71.5,309,o),
(27.5,462,o),
(204,506.5,c),
(191,504,ls),
(-26.5,462,o),
(8.5,58.5,o),
(61.5,264.5,c)
);
}
);
width = 550;
},
{
layerId = m004;
shapes = (
{
closed = 1;
nodes = (
(389.5,0,o),
(503.5,114,o),
(503.5,254.5,cs),
(503.5,395.5,o),
(389.5,509.5,o),
(248.5,509.5,cs),
(181.5,509.5,o),
(121,484.5,o),
(77,449.5,cs),
(67,441.5,o),
(23,346.5,o),
(30.5,317.5,cs),
(71,160,o),
(244.5,181.5,o),
(252.5,247,cs),
(263,335.5,o),
(166.5,342,o),
(178.5,278,c),
(178.5,306,o),
(202.5,311,o),
(212,311,cs),
(217,311,o),
(248,288.5,o),
(248,260.5,cs),
(248,245.5,o),
(241.5,227.5,o),
(221.5,216,cs),
(218,214,ls),
(206.5,207.5,o),
(197,205.5,o),
(183,205.5,cs),
(103,205.5,o),
(56,269,o),
(40.5,315.5,c),
(32,341,o),
(124.5,502.5,o),
(66,440,c),
(5.5,387,o),
(-2,301,o),
(-2,254.5,cs),
(-2,114,o),
(108,0,o),
(248.5,0,cs)
);
},
{
closed = 1;
nodes = (
(52.5,319.5,o),
(210,516.5,o),
(159.5,493,cs),
(94,462.5,ls),
(22,429,o),
(-16.5,77.5,o),
(49.5,268,c)
);
}
);
width = 550;
}
);
unicode = (66,98);
},
{
glyphname = C;
lastChange = "2024-05-23 11:50:55 +0000";
layers = (
{
layerId = m002;
shapes = (
{
closed = 1;
nodes = (
(413.5,0,o),
(525.5,108.5,o),
(531,245,c),
(175,245,l),
(168.5,224,o),
(149.5,209,o),
(127,209,cs),
(99,209,o),
(76.5,231.5,o),
(76.5,259.5,cs),
(76.5,287,o),
(99,309.5,o),
(127,309.5,cs),
(154.5,309.5,o),
(176.5,287.5,o),
(177,260,c),
(531,260,l),
(528.5,398,o),
(415.5,509.5,o),
(276.5,509.5,cs),
(135.5,509.5,o),
(21.5,395.5,o),
(21.5,255,cs),
(21.5,114,o),
(135.5,0,o),
(276.5,0,cs)
);
}
);
width = 550;
},
{
layerId = m003;
shapes = (
{
closed = 1;
nodes = (
(415.5,0,o),
(527.5,108.5,o),
(533,245,c),
(517,245,l),
(510.5,224,o),
(491.5,209,o),
(469,209,cs),
(441,209,o),
(418.5,231.5,o),
(418.5,259.5,cs),
(418.5,287,o),
(441,309.5,o),
(469,309.5,cs),
(496.5,309.5,o),
(518.5,287.5,o),
(519,260,c),
(533,260,l),
(530.5,398,o),
(417.5,509.5,o),
(278.5,509.5,cs),
(137.5,509.5,o),
(23.5,395.5,o),
(23.5,255,cs),
(23.5,114,o),
(137.5,0,o),
(278.5,0,cs)
);
}
);
width = 550;
},
{
layerId = m004;
shapes = (
{
closed = 1;
nodes = (
(436.5,0,o),
(548.5,108.5,o),
(554,245,c),
(554,261.5,l),
(512.5,261.5,o),
(512.5,261.5,o),
(490,261.5,cs),
(462,261.5,o),
(412,259.5,o),
(439.5,259.5,cs),
(481.5,259.5,o),
(465,261,o),
(493,261,c),
(520.5,261,o),
(515,261,o),
(543,260,c),
(554,260,l),
(551.5,398,o),
(438.5,509.5,o),
(299.5,509.5,cs),
(158.5,509.5,o),
(44.5,395.5,o),
(44.5,255,cs),
(44.5,114,o),
(158.5,0,o),
(299.5,0,cs)
);
}
);
width = 550;
}
);
unicode = (67,99);
},
{
glyphname = D;
lastChange = "2024-05-23 11:51:44 +0000";
layers = (
{
layerId = m002;
shapes = (
{
closed = 1;
nodes = (
(417.5,0,o),
(531.5,114,o),
(531.5,255,cs),
(531.5,395.5,o),
(417.5,509.5,o),
(277,509.5,cs),
(120,509.5,o),
(22,473.5,o),
(22,255,cs),
(22,28.5,o),
(150,0,o),
(277,0,cs)
);
},
{
closed = 1;
nodes = (
(99.5,202.5,o),
(76.5,225.5,o),
(76.5,254,cs),
(76.5,282,o),
(99.5,305,o),
(128,305,cs),
(156,305,o),
(179,282,o),
(179,254,cs),
(179,225.5,o),
(156,202.5,o),
(128,202.5,cs)
);
}
);
width = 550;
},
{
layerId = m003;
shapes = (
{
closed = 1;
nodes = (
(418.5,0,o),
(532.5,114,o),
(532.5,255,cs),
(532.5,395.5,o),
(418.5,509.5,o),
(278,509.5,cs),
(50,509.5,o),
(23,395.5,o),
(23,255,cs),
(23,114,o),
(76,0,o),
(278,0,cs)
);
},
{
closed = 1;
nodes = (
(120.5,239,o),
(114,245.5,o),
(114,254,cs),
(114,262,o),
(120.5,268.5,o),
(129,268.5,cs),
(137,268.5,o),
(143.5,262,o),
(143.5,254,cs),
(143.5,245.5,o),
(137,239,o),
(129,239,cs)
);
}
);
width = 550;
},
{
layerId = m004;
shapes = (
{
closed = 1;
nodes = (
(395,0,o),
(509,114,o),
(509,255,cs),
(509,395.5,o),
(395,509.5,o),
(254.5,509.5,cs),
(113.5,509.5,o),
(-0.5,395.5,o),
(-0.5,255,cs),
(-0.5,114,o),
(113.5,0,o),
(254.5,0,cs)
);
},
{
closed = 1;
nodes = (
(123,245.5,o),
(130,252.5,o),
(130,262.5,cs),
(130,271.5,o),
(123,278.5,o),
(114,278.5,cs),
(104,278.5,o),
(97,271.5,o),
(97,262.5,cs),
(97,252.5,o),
(104,245.5,o),
(114,245.5,cs)
);
}
);
width = 550;
}
);
unicode = (68,100);
},
{
glyphname = E;
lastChange = "2024-05-23 11:52:24 +0000";
layers = (
{
layerId = m002;
shapes = (
{
closed = 1;
nodes = (
(412.5,0,o),
(524.5,108.5,o),
(530,245,c),
(174,245,l),
(167.5,224,o),
(148.5,209,o),
(126,209,cs),
(98,209,o),
(75.5,231.5,o),
(75.5,259.5,cs),
(75.5,287,o),
(98,309.5,o),
(126,309.5,cs),
(153.5,309.5,o),
(175.5,287.5,o),
(176,260,c),
(530,260,l),
(527.5,398,o),
(414.5,509.5,o),
(275.5,509.5,cs),
(134.5,509.5,o),
(20.5,395.5,o),
(20.5,255,cs),
(20.5,114,o),
(134.5,0,o),
(275.5,0,cs)
);
},
{
closed = 1;
nodes = (
(48.5,260,l),
(181,260,l),
(181,269.5,l),
(48.5,269.5,l)
);
}
);
width = 550;
},
{
layerId = m003;
shapes = (
{
closed = 1;
nodes = (
(412.5,0,o),
(524.5,115.5,o),
(530,252,c),
(489,252,l),
(485.5,241,o),
(475.5,233,o),
(464,233,cs),
(449.5,233,o),
(437.5,245,o),
(437.5,259.5,cs),
(437.5,273.5,o),
(449.5,285.5,o),
(464,285.5,cs),
(478,285.5,o),
(489.5,274,o),
(490,259.5,c),
(530,259.5,l),
(527.5,397.5,o),
(414.5,509.5,o),
(275.5,509.5,cs),
(134.5,509.5,o),
(20.5,395.5,o),
(20.5,255,cs),
(20.5,114,o),
(134.5,0,o),
(275.5,0,cs)
);
},
{
closed = 1;
nodes = (
(490,259.5,l),
(519,260,l),
(519,269.5,l),
(490,264.5,l)
);
}
);
width = 550;
},
{
layerId = m004;
shapes = (
{
closed = 1;
nodes = (
(436.5,0,o),
(548.5,115.5,o),
(554,252,c),
(549.5,252.5,l),
(547,245.5,o),
(526.5,242.5,o),
(533.5,240.5,cs),
(555.5,235,o),
(554,250,o),
(554,259.5,cs),
(554,268.5,o),
(543,283.5,o),
(533.5,274.5,cs),
(527,268,o),
(549.5,267,o),
(550,257.5,c),
(554,259.5,l),
(551.5,397.5,o),
(438.5,509.5,o),
(299.5,509.5,cs),
(158.5,509.5,o),
(44.5,395.5,o),
(44.5,255,cs),
(44.5,114,o),
(158.5,0,o),
(299.5,0,cs)
);
},
{
closed = 1;
nodes = (
(550,259.5,l),
(554,259.5,l),
(551.5,278,l),
(550,272.5,l)
);
}
);
width = 550;
}
);
unicode = (69,101);
},
{
glyphname = F;
lastChange = "2024-05-23 11:52:47 +0000";
layers = (
{
layerId = m002;
shapes = (
{
closed = 1;
nodes = (
(88.5,220,o),
(469.5,299,cs),
(607,327.5,o),
(418.5,511,o),
(277.5,511,cs),
(137,511,o),
(23,397,o),
(23,256.5,cs),
(23,210,o),
(42,149,o),
(63.5,111.5,c),
(61,152,o),
(61,170,o),
(69.5,195.5,c),
(85,242,o),
(132,305.5,o),
(212,305.5,cs),
(226,305.5,o),
(235.5,303.5,o),
(247,297,cs),
(250.5,295,ls),
(270.5,283.5,o),
(277,265.5,o),
(277,250.5,cs),
(277,222.5,o),
(254.5,200,o),
(226.5,200,cs),
(202,200,o),
(176.5,223,o),
(176.5,250.5,cs),
(176.5,266,o),
(183.5,280,o),
(194.5,289.5,c),
(129.5,276,o),
(81,218.5,o),
(81,148,cs),
(81,122.5,o),
(503,132,o),
(505,145,cs),
(517,214,o)
);
},
{
closed = 1;
nodes = (
(282,-1,l),
(281.5,132.5,o),
(232,181.5,o),
(119,231,c),
(18,125.5,o),
(138,0,o),
(282,-1,cs)
);
}
);
width = 550;
},
{
layerId = m003;
shapes = (
{
closed = 1;
nodes = (
);
},
{
closed = 1;
nodes = (
(530,291,o),
(494.5,370.5,cs),
(456.5,456,o),
(418.5,511,o),
(277.5,511,cs),
(137,511,o),
(23,397,o),
(23,256.5,cs),
(23,210,o),
(42,149,o),
(63.5,111.5,c),
(61,152,o),
(61,170,o),
(69.5,155,c),
(76.5,175.5,o),
(97,203.5,o),
(132.5,203.5,cs),
(138.5,203.5,o),
(143,202.5,o),
(148,199.5,cs),
(149.5,199,ls),
(158.5,193.5,o),
(161,185.5,o),
(161,179,cs),
(161,152,o),
(127.5,163.5,o),
(115,163.5,cs),
(104,163.5,o),
(152,159,o),
(152,183.5,cs),
(152,190.5,o),
(140.5,196.5,o),
(125,196.5,c),
(96,190.5,o),
(74.5,165,o),
(74.5,134,cs),
(74.5,122.5,o),
(430.5,-9,o),
(440,0,cs),
(527.5,85.5,o)
);
},
{
closed = 1;
nodes = (
(282,-1,l),
(344,21.5,o),
(141.5,148.5,o),
(91.5,170.5,c),
(18,125.5,o),
(138,0,o),
(282,-1,cs)
);
}
);
width = 550;
},
{
layerId = m004;
shapes = (
{
closed = 1;
nodes = (
);
},
{
closed = 1;
nodes = (
(531.5,279,o),
(496,358.5,cs),
(458,444,o),
(402.5,511,o),
(261.5,511,cs),
(121,511,o),
(7,397,o),
(7,256.5,cs),
(7,210,o),
(30.5,143,o),
(52,105.5,c),
(91.5,54.5,o),
(113.5,76.5,o),
(122,61.5,c),
(142.5,187,o),
(88,160,o),
(89.5,160,cs),
(93,160,o),
(95,160,o),
(98,158.5,cs),
(98.5,158.5,ls),
(103.5,156.5,o),
(105,153.5,o),
(105,151,cs),
(105,141,o),
(87,145,o),
(80,145,cs),
(74.5,145,o),
(100,143.5,o),
(100,152.5,cs),
(100,155.5,o),
(94,157.5,o),
(85.5,157.5,c),
(70,155.5,o),
(58.5,145.5,o),
(58.5,134,cs),
(58.5,79.5,o),
(218,-54.5,o),
(371.5,21,cs),
(538,103,o)
);
},
{
closed = 1;
nodes = (
(266,-1,l),
(325.5,9.5,o),
(94.5,139.5,o),
(67.5,147.5,c),
(2,125.5,o),
(122,0,o),
(266,-1,cs)
);
}
);
width = 550;
}
);
unicode = (70,102);
},
{
glyphname = G;
lastChange = "2024-05-23 11:53:19 +0000";
layers = (
{
layerId = m002;
shapes = (
{
closed = 1;
nodes = (
(412.5,0,o),
(524.5,108.5,o),
(530,245,c),
(174,245,l),
(167.5,224,o),
(148.5,209,o),
(126,209,cs),
(98,209,o),
(75.5,231.5,o),
(75.5,259.5,cs),
(75.5,287,o),
(98,309.5,o),
(126,309.5,cs),
(153.5,309.5,o),
(175.5,287.5,o),
(176,260,c),
(530,260,l),
(527.5,398,o),
(414.5,509.5,o),
(275.5,509.5,cs),
(134.5,509.5,o),
(20.5,395.5,o),
(20.5,255,cs),
(20.5,114,o),
(134.5,0,o),
(275.5,0,cs)
);
},
{
closed = 1;
nodes = (
(129,235.5,l),
(181,235.5,l),
(181,245,l),
(129,245,l)
);
}
);
width = 550;
},
{
layerId = m003;
shapes = (
{
closed = 1;
nodes = (
(412.5,6,o),
(524.5,114.5,o),
(530,251,c),
(501,251,l),
(497,238.5,o),
(485.5,229.5,o),
(472,229.5,cs),
(455,229.5,o),
(441.5,243,o),
(441.5,260,cs),
(441.5,276.5,o),
(455,290,o),
(472,290,cs),
(488.5,290,o),
(501.5,277,o),
(502,260,c),
(530,260,l),
(527.5,398,o),
(414.5,509.5,o),
(275.5,509.5,cs),
(134.5,509.5,o),
(20.5,395.5,o),
(20.5,255,cs),
(20.5,114,o),
(134.5,6,o),
(275.5,6,cs)
);
},
{
closed = 1;
nodes = (
(472.5,245,l),
(507,245,l),
(507,251,l),
(472.5,251,l)
);
}
);
width = 550;
},
{
layerId = m004;
shapes = (
{
closed = 1;
nodes = (
(433.5,6,o),
(551,120,o),
(551,260,c),
(491.5,257,l),
(491.5,247,o),
(491.5,255,o),
(491.5,255.5,cs),
(491.5,263.5,o),
(494,249.5,o),
(494,257.5,cs),
(494,265,o),
(483.5,258,o),
(491.5,258,cs),
(499,258,o),
(491,265,o),
(491.5,257,c),
(551,260,l),
(548.5,398,o),
(435.5,509.5,o),
(296.5,509.5,cs),
(155.5,509.5,o),
(41.5,395.5,o),
(41.5,255,cs),
(41.5,114,o),
(155.5,6,o),
(296.5,6,cs)
);
},
{
closed = 1;
nodes = (
(508.5,245,l),
(528,245,l),
(528,251,l),
(508.5,251,l)
);
}
);
width = 550;
}
);
unicode = (71,103);
},
{
glyphname = H;
lastChange = "2024-05-23 11:53:46 +0000";
layers = (
{
layerId = m002;
shapes = (
{
closed = 1;
nodes = (
);
},
{
closed = 1;
nodes = (
);
},
{
closed = 1;
nodes = (
(166,273.5,o),
(109,-51,o),
(333,0,cs),
(447.5,26,o),
(412.5,140.5,o),
(399.5,163,c),
(401,158,o),
(402,153,o),
(402,147.5,cs),
(402,120,o),
(379.5,97.5,o),
(352,97.5,cs),
(324,97.5,o),
(301.5,120,o),
(301.5,147.5,cs),
(301.5,175.5,o),
(324,198,o),
(352,198,cs),
(354.5,198,o),
(357,198,o),
(360,197.5,cs),
(434.5,194.5,o),
(445,101.5,o),
(451,45.5,c),
(499,92,o),
(534,174,o),
(534,245.5,cs),
(534,386.5,o),
(420,508,o),
(279,508,cs),
(201,508,o),
(177,489,o),
(141,443.5,cs),
(124.5,423,o),
(111.5,390.5,o),
(111.5,361.5,cs),
(111.5,322,o),
(123,272.5,o),
(172,261,c),
(161,270.5,o),
(148.5,281,o),
(148.5,296.5,cs),
(148.5,324.5,o),
(170.5,347,o),
(198.5,347,cs),
(226.5,347,o),
(249,324.5,o),
(249,296.5,cs),
(249,281.5,o),
(242.5,263.5,o),
(222.5,252,cs),
(219,250,ls),
(207.5,243.5,o),
(198,241.5,o),
(184,241.5,cs),
(142.5,241.5,o),
(118,249.5,o),
(98.5,274,cs),
(86.5,289,o),
(64.5,343.5,o),
(91,406,c),
(69.5,368.5,o),
(24.5,299.5,o),
(24.5,253,cs),
(24.5,112.5,o),
(46.5,-205.5,o),
(146,193,cs)
);
},
{
closed = 1;
nodes = (
(45.5,302.5,o),
(76.5,409,o),
(151,504,c),
(64,504,l),
(-87,-73,o),
(266,171.5,o),
(94,270.5,c)
);
}
);
width = 550;
},
{
layerId = m003;
shapes = (
{
closed = 1;
nodes = (
);
},
{
closed = 1;
nodes = (
);
},
{
closed = 1;
nodes = (
(289.5,-2,o),
(381,-2,o),
(406,54.5,cs),
(431,111,o),
(383,177,o),
(344,142.5,cs),
(319,120.5,o),
(381,75.5,o),
(381,129,cs),
(381,116.5,o),
(377,97.5,o),
(359.5,97.5,cs),
(342,97.5,o),
(328,111.5,o),
(328,129,cs),
(328,146.5,o),
(347,160.5,o),
(364.5,160.5,cs),
(366,160.5,o),
(362.5,161,o),
(364.5,160.5,cs),
(423.5,153,o),
(438,96,o),
(440,59.5,c),
(488,106,o),
(523,174,o),
(523,245.5,cs),
(523,386.5,o),
(409,508,o),
(268,508,cs),
(190,508,o),
(172,489,o),
(130,443.5,cs),
(112,424,o),
(100.5,390.5,o),
(100.5,361.5,cs),
(100.5,322,o),
(115,261,o),
(161,261,cs),
(266,261,o),
(193,372,o),
(162.5,315,cs),
(148,288.5,o),
(159.5,347,o),
(187.5,347,cs),
(215.5,347,o),
(238,324.5,o),
(238,296.5,cs),
(238,281.5,o),
(231,264,o),
(213,250.5,cs),
(206.5,245.5,ls),
(195.5,237,o),
(187,236,o),
(173,236,cs),
(112,236,o),
(82.5,271,o),
(65,304.5,c),
(52,329.5,o),
(51.5,357.5,o),
(54,398,c),
(32.5,360.5,o),
(13.5,299.5,o),
(13.5,253,cs),
(13.5,112.5,o),
(134,4,o),
(239.5,0,cs)
);
},
{
closed = 1;
nodes = (
(72,318,o),
(15,357,o),
(106,508,c),
(10.5,508.5,l),
(12,364.5,o),
(-5,47,o),
(69,271,c)
);
}
);
width = 550;
},
{
layerId = m004;
shapes = (
{
closed = 1;
nodes = (
(280,-2,o),
(371.5,-2,o),
(396.5,54.5,cs),
(421.5,111,o),
(373.5,177,o),
(334.5,142.5,cs),
(309.5,120.5,o),
(371.5,75.5,o),
(371.5,129,cs),
(371.5,116.5,o),
(367.5,97.5,o),
(350,97.5,cs),
(332.5,97.5,o),
(324.5,55,o),
(339.5,60.5,cs),
(463,104.5,o),
(354,177.5,o),
(355,160.5,cs),
(356.5,136,o),
(291.5,14.5,o),
(293.5,14,cs),
(352.5,6.5,o),
(351,7,o),
(430.5,59.5,c),
(478.5,106,o),
(513.5,174,o),
(513.5,245.5,cs),
(513.5,386.5,o),
(399.5,508,o),
(258.5,508,cs),
(180.5,508,o),
(112.5,484.5,o),
(66,424,cs),
(50,403,o),
(44.5,362,o),
(44.5,333,cs),
(44.5,263.5,o),
(67,213.5,o),
(151.5,213.5,cs),
(439.5,213.5,o),
(65,492.5,o),
(153,315,cs),
(176,269,o),
(150,347,o),
(178,347,cs),
(206,347,o),
(228.5,324.5,o),
(228.5,296.5,cs),
(228.5,281.5,o),
(221.5,264,o),
(203.5,250.5,cs),
(197,245.5,ls),
(186,237,o),
(177.5,236,o),
(163.5,236,cs),
(102.5,236,o),
(73,271,o),
(55.5,304.5,c),
(42.5,329.5,o),
(45.5,357.5,o),
(48,398,c),
(26.5,360.5,o),
(4,299.5,o),
(4,253,cs),
(4,112.5,o),
(124.5,4,o),
(230,0,cs)
);
},
{
closed = 1;
nodes = (
(62.5,318,o),
(129.5,465,o),
(183,498,c),
(98,451.5,ls),
(-28,383,o),
(16,47.5,o),
(59.5,271,c)
);
}
);
width = 550;
}
);
unicode = (72,104);
},
{
glyphname = I;
lastChange = "2024-05-23 11:54:20 +0000";
layers = (
{
layerId = m002;
shapes = (
{
closed = 1;
nodes = (
(415.5,0.5,o),
(527,108.5,o),
(533,244.5,c),
(378,244.5,l),
(378,259,l),
(533,259,l),
(531,398,o),
(418,510,o),
(278.5,510,cs),
(138.5,510,o),
(25.5,398,o),
(23.5,259,c),
(184,259,l),
(184,244.5,l),
(23.5,244.5,l),
(29.5,108.5,o),
(141,0.5,o),
(278.5,0.5,cs)
);
}
);
width = 550;
},
{
layerId = m003;
shapes = (
{
closed = 1;
nodes = (
(435,0.5,o),
(546.5,108.5,o),
(552.5,244.5,c),
(482,244.5,l),
(482,259,l),
(552.5,259,l),
(550.5,398,o),
(437.5,510,o),
(298,510,cs),
(158,510,o),
(45,398,o),
(43,259,c),
(120,259,l),
(120,244.5,l),
(43,244.5,l),
(49,108.5,o),
(160.5,0.5,o),
(298,0.5,cs)
);
}
);
width = 600;
},
{
layerId = m004;
shapes = (
{
closed = 1;
nodes = (
(481.5,0.5,o),
(593,108.5,o),
(599,244.5,c),
(599,244.5,l),
(599,259,l),
(599,259,l),
(597,398,o),
(484,510,o),
(344.5,510,cs),
(204.5,510,o),
(91.5,398,o),
(89.5,259,c),
(89.5,259,l),
(89.5,244.5,l),
(89.5,244.5,l),
(95.5,108.5,o),
(207,0.5,o),
(344.5,0.5,cs)
);
}
);
width = 600;
}
);
unicode = (73,105);
},
{
glyphname = J;
lastChange = "2024-05-23 11:55:48 +0000";
layers = (
{
layerId = m002;
shapes = (
{
closed = 1;
nodes = (
(416.5,0,o),
(530.5,114,o),
(530.5,255,cs),
(530.5,395.5,o),
(416.5,509.5,o),
(276,509.5,cs),
(185,509.5,o),
(105.5,462,o),
(60,390.5,c),
(227,419.5,o),
(293.5,369,o),
(316,332,c),
(322.5,323.5,o),
(325,308,o),
(325,297,cs),
(325,268.5,o),
(302.5,246,o),
(274.5,246,cs),
(246,246,o),
(223.5,268.5,o),
(223.5,297,cs),
(223.5,325,o),
(246,347.5,o),
(274.5,347.5,cs),
(275,347.5,l),
(206,376.5,o),
(96.5,381.5,o),
(57,331.5,c),
(29,295.5,o),
(21,237.5,o),
(21,211,cs),
(21,101.5,o),
(135,0,o),
(276,0,cs)
);
}
);
width = 550;
},
{
layerId = m003;
shapes = (
{
closed = 1;
nodes = (
(442,0,o),
(556,114,o),
(556,255,cs),
(556,395.5,o),
(442,509.5,o),
(301.5,509.5,cs),
(210.5,509.5,o),
(131,465,o),
(85.5,373,c),
(221,441,o),
(319,369,o),
(341.5,332,c),
(348,323.5,o),
(350.5,308,o),
(350.5,297,cs),
(350.5,268.5,o),
(314.5,246,o),
(286.5,246,cs),
(240,246,o),
(221,313.5,o),
(261.5,317,cs),
(254.5,316.5,o),
(236.5,258,o),
(280.5,258,cs),
(287.5,258,ls),
(382,258,o),
(296.5,482,o),
(93.5,357,c),
(58.5,327.5,o),
(46.5,237.5,o),
(46.5,211,cs),
(46.5,101.5,o),
(160.5,0,o),
(301.5,0,cs)
);
}
);
width = 600;
},
{
layerId = m004;
shapes = (
{
closed = 1;
nodes = (
(403,0,o),
(509.5,114,o),
(509.5,255,cs),
(509.5,395.5,o),
(395.5,514,o),
(255,514,cs),
(164,514,o),
(74,480,o),
(31.5,387,c),
(167,455,o),
(211,369,o),
(219,355.5,c),
(221.5,352,o),
(222.5,346.5,o),
(222.5,342.5,cs),
(222.5,331.5,o),
(209,323.5,o),
(199,323.5,cs),
(181.5,323.5,o),
(206,349.5,o),
(192.5,349.5,cs),
(156,349.5,o),
(176.5,322,o),
(194,319.5,cs),
(204.5,318,ls),
(232.5,314,o),
(344.5,464.5,o),
(49.5,418.5,c),
(-12,341.5,o),
(-4,237.5,o),
(-2,211,cs),
(8.5,83.5,o),
(121.5,0,o),
(262.5,0,cs)
);
}
);
width = 600;
}
);
unicode = (74,106);
},
{
glyphname = K;
lastChange = "2024-05-23 11:56:17 +0000";
layers = (
{
layerId = m002;
shapes = (
{
closed = 1;
nodes = (
(344,0,o),
(406.5,28,o),
(452.5,73,c),
(463.5,102,o),
(463.5,135.5,o),
(449.5,165.5,cs),
(423,221.5,o),
(359.5,247.5,o),
(302,227.5,c),
(319.5,226,o),
(335.5,215.5,o),
(343.5,198.5,cs),
(355,173.5,o),
(344,144,o),
(319.5,132,cs),
(303.5,124.5,o),
(286,126.5,o),
(272,135,c),
(272,0,l),
(274.5,0,ls)
);
},
{
closed = 1;
nodes = (
(19.5,118.5,o),
(126,7.5,o),
(260.5,0.5,c),
(260.5,144.5,l),
(257.5,148,o),
(254.5,152,o),
(252.5,156.5,cs),
(247.5,167.5,o),
(246.5,180,o),
(250.5,191,c),
(249,190,l),
(250,192,o),
(250.5,194,o),
(251.5,196.5,cs),
(253.5,201,o),
(256,205,o),
(258.5,208.5,cs),
(271,226.5,o),
(288,242,o),
(309.5,252,cs),
(370.5,280.5,o),
(442.5,254.5,o),
(471,193.5,cs),
(486,161.5,o),
(486,126.5,o),
(473.5,96,c),
(508.5,139.5,o),
(529,195,o),
(529,255,cs),
(529,395.5,o),
(415,509.5,o),
(274.5,509.5,cs),
(271.5,509.5,l),
(271.5,302.5,l),
(261.5,302.5,l),
(261.5,509,l),
(126.5,502.5,o),
(19.5,391,o),
(19.5,255,cs)
);
}
);
width = 550;
},
{
layerId = m003;
shapes = (
{
closed = 1;
nodes = (
(344,0,o),
(406.5,28,o),
(452.5,73,c),
(463.5,102,o),
(469.5,136,o),
(449.5,165.5,cs),
(429,195.5,o),
(403,216,o),
(363,192.5,cs),
(318.5,166,o),
(350.5,101.5,o),
(387,153.5,cs),
(399,170.5,o),
(391,132,o),
(372,123,cs),
(360,117,o),
(346.5,118.5,o),
(335.5,125,c),
(272,0,l),
(274.5,0,ls)
);
},
{
closed = 1;
nodes = (
(19.5,118.5,o),
(112,6.5,o),
(272,0,c),
(335.5,125,l),
(330.5,128.5,o),
(326.5,135,o),
(325,137.5,cs),
(321,146,o),
(319.5,151,o),
(321,158.5,cs),
(322,163.5,l),
(323,165,o),
(323.5,166.5,o),
(324,168.5,cs),
(325.5,172,o),
(327.5,175,o),
(329.5,177.5,cs),
(339,191.5,o),
(347.5,201.5,o),
(368.5,211,cs),
(389,220.5,o),
(413.5,225,o),
(454.5,193.5,cs),
(479,166,o),
(486,126.5,o),
(473.5,96,c),
(508.5,139.5,o),
(529,195,o),
(529,255,cs),
(529,395.5,o),
(415,509.5,o),
(274.5,509.5,cs),
(271.5,509.5,l),
(271.5,442,l),
(261.5,442,l),
(261.5,509,l),
(126.5,502.5,o),
(19.5,391,o),
(19.5,255,cs)
);
}
);
width = 550;
},
{
layerId = m004;
shapes = (
{
closed = 1;
nodes = (
(364,0,o),
(426.5,28,o),
(472.5,73,c),
(483.5,102,o),
(489.5,136,o),
(469.5,165.5,cs),
(449,195.5,o),
(423,216,o),
(383,192.5,cs),
(338.5,166,o),
(370.5,101.5,o),
(407,153.5,cs),
(419,170.5,o),
(411,132,o),
(392,123,cs),
(380,117,o),
(366.5,118.5,o),
(355.5,125,c),
(292,0,l),
(294.5,0,ls)
);
},
{
closed = 1;
nodes = (
(39.5,118.5,o),
(132,6.5,o),
(292,0,c),
(355.5,125,l),
(350.5,128.5,o),
(346.5,135,o),
(345,137.5,cs),
(341,146,o),
(339.5,151,o),
(341,158.5,cs),
(342,163.5,l),
(343,165,o),
(343.5,166.5,o),
(344,168.5,cs),
(345.5,172,o),
(347.5,175,o),
(349.5,177.5,cs),
(359,191.5,o),
(367.5,201.5,o),
(388.5,211,cs),
(409,220.5,o),
(270,166.5,o),
(311,135,cs),
(335.5,107.5,o),
(485,103.5,o),
(472.5,73,c),
(526.5,116.5,o),
(549,195,o),
(549,255,cs),
(549,395.5,o),
(435,509.5,o),
(294.5,509.5,cs),
(291.5,509.5,l),
(291.5,509.5,l),
(281.5,509.5,l),
(281.5,509,l),
(146.5,502.5,o),
(39.5,391,o),
(39.5,255,cs)
);
}
);
width = 550;
}
);
unicode = (75,107);
},
{
glyphname = L;
lastChange = "2024-05-23 11:56:45 +0000";
layers = (
{
layerId = m002;
shapes = (
{
closed = 1;
nodes = (
(265,164.5,l),
(265,163.5,l),
(512.5,163.5,l),
(523.5,192,o),
(530,222.5,o),
(530,255,cs),
(530,393.5,o),
(412.5,506,o),
(275,509.5,c),
(275,160,l),
(265,160,l),
(265,509.5,l),
(129,504,o),
(20.5,392,o),
(20.5,255,cs),
(20.5,114,o),
(134.5,0,o),
(275.5,0,cs),
(375,0,o),
(467.5,63.5,o),
(508.5,154,c),
(265,154,l)
);
}
);
width = 550;
},
{
layerId = m003;
shapes = (
{
closed = 1;
nodes = (
(423.5,164.5,l),
(423.5,163.5,l),
(512.5,163.5,l),
(523.5,192,o),
(530,222.5,o),
(530,255,cs),
(530,393.5,o),
(412.5,506,o),
(275,509.5,c),
(275,352,l),
(265,352,l),
(265,509.5,l),
(129,504,o),
(20.5,392,o),
(20.5,255,cs),
(20.5,114,o),
(134.5,0,o),
(275.5,0,cs),
(375,0,o),
(467.5,63.5,o),
(508.5,154,c),
(423.5,154,l)
);
}
);
width = 550;
},
{
layerId = m004;
shapes = (
{
closed = 1;
nodes = (
(493,163.5,l),
(493,163.5,l),
(493,163.5,l),
(504,192,o),
(510.5,222.5,o),
(510.5,255,cs),
(510.5,393.5,o),
(393,506,o),
(255.5,509.5,c),
(255.5,509.5,l),
(245.5,509.5,l),
(245.5,509.5,l),
(109.5,504,o),
(1,392,o),
(1,255,cs),
(1,114,o),
(115,0,o),
(256,0,cs),
(355.5,0,o),
(448,63.5,o),
(489,154,c),
(489,154,l)
);
}
);
width = 550;
}
);
unicode = (76,108);
},
{
glyphname = M;
lastChange = "2024-05-23 11:57:08 +0000";
layers = (
{
layerId = m002;
shapes = (
{
closed = 1;
nodes = (
(320,-0.5,o),
(360.5,10,o),
(396,29,c),
(396,251.5,l),
(405,251.5,l),
(405,34,l),
(480.5,78,o),
(531.5,160.5,o),
(531.5,254.5,cs),
(531.5,394,o),
(419.5,507.5,o),
(280.5,509.5,c),
(280.5,170,l),
(271.5,170,l),
(271.5,509.5,l),
(133,506.5,o),
(22,393.5,o),
(22,255,cs),
(22,161,o),
(72.5,79,o),
(148,34.5,c),
(148,251.5,l),
(157,251.5,l),
(157,29.5,l),
(193,10.5,o),
(233.5,-0.5,o),
(277,-0.5,cs)
);
}
);
width = 550;
},
{
layerId = m003;
shapes = (
{
closed = 1;
nodes = (
(320,-0.5,o),
(360.5,10,o),
(396,29,c),
(396,90.5,l),
(405,90.5,l),
(405,34,l),
(480.5,78,o),
(531.5,160.5,o),
(531.5,254.5,cs),
(531.5,394,o),
(419.5,507.5,o),
(280.5,509.5,c),
(280.5,476.5,l),
(271.5,476.5,l),
(271.5,509.5,l),
(133,506.5,o),
(22,393.5,o),
(22,255,cs),
(22,161,o),
(72.5,79,o),
(148,34.5,c),
(148,95.5,l),
(157,95.5,l),
(157,29.5,l),
(193,10.5,o),
(233.5,-0.5,o),
(277,-0.5,cs)
);
}
);
width = 550;
},
{
layerId = m004;
shapes = (
{
closed = 1;
nodes = (
(337.5,-0.5,o),
(378,10,o),
(413.5,29,c),
(419,32.5,l),
(422.5,34,l),
(422.5,34,l),
(498,78,o),
(549,160.5,o),
(549,254.5,cs),
(549,394,o),
(437,507.5,o),
(298,509.5,c),
(298,509.5,l),
(289,509.5,l),
(289,509.5,l),
(150.5,506.5,o),
(39.5,393.5,o),
(39.5,255,cs),
(39.5,161,o),
(90,79,o),
(165.5,34.5,c),
(168,33,l),
(174.5,29.5,l),
(174.5,29.5,l),
(210.5,10.5,o),
(251,-0.5,o),
(294.5,-0.5,cs)
);
}
);
width = 550;
}
);
unicode = (77,109);
},
{
glyphname = N;
lastChange = "2024-05-23 11:57:29 +0000";
layers = (
{
layerId = m002;
shapes = (
{
closed = 1;
nodes = (
(467,0,o),
(529.5,160.5,o),
(529.5,254.5,cs),
(529.5,394,o),
(417.5,507.5,o),
(278.5,509.5,c),
(382,170,l),
(373,170,l),
(269.5,509.5,l),
(131,506.5,o),
(20,393.5,o),
(20,255,cs),
(20,161,o),
(70.5,79,o),
(146,34.5,cs),
(168,22.5,o),
(186,14.5,o),
(203,9.5,c),
(125,267,l),
(135,267,l),
(214,6,l),
(233.5,1,o),
(252.5,-0.5,o),
(275,-0.5,cs)
);
}
);
width = 550;
},
{
layerId = m003;
shapes = (
{
closed = 1;
nodes = (
(467.5,0,o),
(530,160.5,o),
(530,254.5,cs),
(530,394,o),
(418,507.5,o),
(279,509.5,c),
(302.5,430.5,l),
(293.5,430.5,l),
(270,509.5,l),
(131.5,506.5,o),
(20.5,393.5,o),
(20.5,255,cs),
(20.5,161,o),
(71,79,o),
(146.5,34.5,cs),
(168.5,22.5,o),
(186.5,14.5,o),
(203.5,9.5,c),
(179,90.5,l),
(189,90.5,l),
(214.5,6,l),
(234,1,o),
(253,-0.5,o),
(275.5,-0.5,cs)
);
}
);
width = 550;
},
{
layerId = m004;
shapes = (
{
closed = 1;
nodes = (
(449,0,o),
(511.5,160.5,o),
(511.5,254.5,cs),
(511.5,394,o),
(399.5,507.5,o),
(260.5,509.5,c),
(260.5,509.5,l),
(251.5,509.5,l),
(251.5,509.5,l),
(113,506.5,o),
(2,393.5,o),
(2,255,cs),
(2,161,o),
(52.5,79,o),
(128,34.5,cs),
(150,22.5,o),
(168,14.5,o),
(185,9.5,c),
(190.5,8,l),
(196,6,l),
(196,6,l),
(215.5,1,o),
(234.5,-0.5,o),
(257,-0.5,cs)
);
}
);
width = 550;
}
);
unicode = (78,110);
},
{
glyphname = O;
lastChange = "2024-05-23 11:57:50 +0000";
layers = (
{
layerId = m002;
shapes = (
{
closed = 1;
nodes = (
(305.5,-3.5,o),
(334,1.5,o),
(360,11,c),
(386.5,32.5,o),
(403.5,66,o),
(403.5,102.5,cs),
(403.5,164.5,o),
(356.5,215,o),
(296,221,c),
(311.5,212.5,o),
(321.5,196,o),
(321.5,177.5,cs),
(321.5,150,o),
(299,127.5,o),
(271.5,127.5,cs),
(244,127.5,o),
(221.5,150,o),
(221.5,177.5,cs),
(221.5,190,o),
(226,201.5,o),
(234,210,c),
(232,209.5,l),
(234,211,o),
(235.5,212.5,o),
(237.5,214,cs),
(241,217.5,o),
(245,220,o),
(249,222,cs),
(267.5,233.5,o),
(289.5,240.5,o),
(313.5,240.5,cs),
(380.5,240.5,o),
(435,186,o),
(435,119,cs),
(435,79.5,o),
(416.5,44.5,o),
(387.5,22,c),
(472,63.5,o),
(530.5,150.5,o),
(530.5,251.5,cs),
(530.5,392,o),
(416.5,506,o),
(276,506,cs),
(135,506,o),
(21,392,o),
(21,251.5,cs),
(21,110.5,o),
(135,-3.5,o),
(276,-3.5,cs)
);
}
);
width = 550;
},
{
layerId = m003;
shapes = (
{
closed = 1;
nodes = (
(305.5,-3.5,o),
(334,1.5,o),
(360,11,c),
(386.5,32.5,o),
(405,47.5,o),
(410.5,84,cs),
(410.5,109.5,o),
(387.5,134,o),
(362.5,134,cs),
(337.5,134,o),
(336.5,98,o),
(370.5,111.5,c),
(382,116,o),
(364,98,o),
(353,98,cs),
(341.5,98,o),
(332.5,107,o),
(332.5,118.5,cs),
(332.5,123.5,o),
(334,128.5,o),
(337.5,132,c),
(336.5,131.5,l),
(337.5,132.5,o),
(338,132.5,o),
(338.5,133.5,cs),
(340.5,135,o),
(342,136,o),
(343.5,136.5,cs),
(351.5,141.5,o),
(360,144.5,o),
(369.5,144.5,cs),
(397,144.5,o),
(421.5,126,o),
(426.5,101,cs),
(434.5,65.5,o),
(416.5,44.5,o),
(387.5,22,c),
(472,63.5,o),
(530.5,150.5,o),
(530.5,251.5,cs),
(530.5,392,o),
(416.5,506,o),
(276,506,cs),
(135,506,o),
(21,392,o),
(21,251.5,cs),
(21,110.5,o),
(135,-3.5,o),
(276,-3.5,cs)
);
}
);
width = 550;
},
{
layerId = m004;
shapes = (
{
closed = 1;
nodes = (
(325.5,-3.5,o),
(354,1.5,o),
(380,11,c),
(419,27,o),
(429.5,26,o),
(403,56,cs),
(396.5,63.5,o),
(397,69.5,o),
(390,69.5,cs),
(383.5,69.5,o),
(383,60,o),
(392.5,63.5,c),
(395.5,64.5,o),
(390.5,60,o),
(387.5,60,cs),
(384.5,60,o),
(382,62,o),
(382,65.5,cs),
(382,66.5,o),
(382.5,68,o),
(383.5,69,c),
(383,69,l),
(383.5,69,o),
(383.5,69,o),
(384,69.5,cs),
(384.5,70,o),
(384.5,70,o),
(385,70,cs),
(387.5,71.5,o),
(389.5,72.5,o),
(392,72.5,cs),
(399.5,72.5,o),
(377.5,74,o),
(379,67,cs),
(387,44,o),
(414.5,44.5,o),
(407.5,22,c),
(492,63.5,o),
(550.5,150.5,o),
(550.5,251.5,cs),
(550.5,392,o),
(436.5,506,o),
(296,506,cs),
(155,506,o),
(41,392,o),
(41,251.5,cs),
(41,110.5,o),
(155,-3.5,o),
(296,-3.5,cs)
);
}
);
width = 550;
}
);
unicode = (79,111);
},
{
glyphname = P;
lastChange = "2024-05-23 11:58:32 +0000";
layers = (
{
layerId = m002;
shapes = (
{
closed = 1;
nodes = (
(136.5,508.5,o),
(22.5,394.5,o),
(22.5,254,cs),
(22.5,207.5,o),
(41.5,146.5,o),
(63,109,c),
(60.5,149.5,o),
(60.5,167.5,o),
(69,193,c),
(84.5,239.5,o),
(131.5,303,o),
(211.5,303,cs),
(225.5,303,o),
(235,301,o),
(246.5,294.5,cs),
(250,292.5,ls),
(270,281,o),
(276.5,263,o),
(276.5,248,cs),
(276.5,220,o),
(254,197.5,o),
(226,197.5,cs),
(198,197.5,o),
(176,220,o),
(176,248,cs),
(176,263.5,o),
(183,277.5,o),
(194,287,c),
(129,273.5,o),
(80.5,216,o),
(80.5,145.5,cs),
(80.5,116.5,o),
(92,83,o),
(110,63.5,cs),
(152,18,o),
(210,-1,o),
(277,-1,cs),
(418,-1,o),
(532,113,o),
(532,254,cs),
(532,394.5,o),
(418,508.5,o),
(277,508.5,cs)
);
},
{
closed = 1;
nodes = (
(4,460,o),
(21,142.5,o),
(19.5,-1.5,c),
(115,-1,l),
(24,150,o),
(81,189,o),
(78,236,c)
);
}
);
width = 550;
},
{
layerId = m003;
shapes = (
{
closed = 1;
nodes = (
);
},
{
closed = 1;
nodes = (
(136.5,510,o),
(22.5,396,o),
(22.5,255.5,cs),
(22.5,209,o),
(50,129.5,o),
(82.5,91.5,c),
(67.5,127.5,o),
(67,166.5,o),
(75.5,192,c),
(82,206,o),
(94,223,o),
(121,219,cs),
(128.5,218,o),
(133.5,218,o),
(140,214.5,cs),
(141.5,213.5,ls),
(152.5,207,o),
(156,197.5,o),
(156,189.5,cs),
(156,174,o),
(144,162,o),
(129,162,cs),
(113.5,162,o),
(91.5,203.5,o),
(113,179.5,cs),
(144.5,144,o),
(167.5,209,o),
(111.5,210.5,c),
(111.5,210.5,o),
(80.5,217.5,o),
(80.5,147,cs),
(80.5,118,o),
(92,84.5,o),
(110,65,cs),
(152,19.5,o),
(210,0.5,o),
(277,0.5,cs),
(418,0.5,o),
(532,114.5,o),
(532,255.5,cs),
(532,396,o),
(418,510,o),
(277,510,cs)
);
},
{
closed = 1;
nodes = (
(116,534,o),
(28.5,359.5,o),
(27,215.5,c),
(54,138,l),
(10.5,280.5,o),
(159.5,328,o),
(156.5,375,c)
);
}
);
width = 550;
},
{
layerId = m004;
shapes = (
{
closed = 1;
nodes = (
(113,510,o),
(-1,396,o),
(-1,255.5,cs),
(-1,208.5,o),
(29.5,121,o),
(73,81,c),
(67.5,119.5,o),
(99,152,o),
(75.5,155,c),
(78,160.5,o),
(54,159,o),
(64.5,157.5,cs),
(67.5,157,o),
(69.5,157,o),
(72,155.5,cs),
(72.5,155,ls),
(77,152.5,o),
(78,149,o),
(78,146,cs),
(78,140,o),
(73.5,135,o),
(67.5,135,cs),
(61.5,135,o),
(53,151.5,o),
(61.5,142,cs),
(73.5,128,o),
(82.5,153.5,o),
(61,154,c),
(61,154,o),
(47.5,158.5,o),
(47.5,131,cs),
(47.5,119.5,o),
(67,86,o),
(85,66.5,cs),
(127,21,o),
(186.5,0.5,o),
(253.5,0.5,cs),
(394.5,0.5,o),
(508.5,114.5,o),
(508.5,255.5,cs),
(508.5,396,o),
(394.5,510,o),
(253.5,510,cs)
);
},
{
closed = 1;
nodes = (
(92.5,534,o),
(5,359.5,o),
(3.5,215.5,c),
(32,138,l),
(-11.5,280.5,o),
(136,328,o),
(133,375,c)
);
}
);
width = 550;
}
);
unicode = (80,112);
},
{
glyphname = Q;
lastChange = "2024-05-23 11:58:53 +0000";
layers = (
{
layerId = m002;
shapes = (
{
closed = 1;
nodes = (
(20.5,117,o),
(134.5,2.5,o),
(275,2.5,cs),
(321.5,2.5,o),
(382.5,22,o),
(420,43,c),
(379.5,40.5,o),
(361.5,41,o),
(336,49,c),
(289.5,64.5,o),
(226,112,o),
(226,191.5,cs),
(226,206,o),
(228,215,o),
(234.5,226.5,cs),
(236.5,230.5,ls),
(248,250,o),
(266,256.5,o),
(281,256.5,cs),
(309,256.5,o),
(331.5,234,o),
(331.5,206,cs),
(331.5,178.5,o),
(309,156.5,o),
(281,156.5,cs),
(265.5,156,o),
(251.5,163.5,o),
(242,174.5,c),
(255.5,109.5,o),
(313,60.5,o),
(383.5,60.5,cs),
(412.5,61,o),
(446,72,o),
(465.5,90.5,cs),
(511,132,o),
(530,190,o),
(530,257.5,cs),
(530,398,o),
(416,512.5,o),
(275,512,cs),
(134.5,512.5,o),
(20.5,398.5,o),
(20.5,257.5,cs)
);
},
{
closed = 1;
nodes = (
(69,-16,o),
(386.5,1,o),
(530.5,0,c),
(530,95.5,l),
(379,4,o),
(340,61.5,o),
(293,58.5,c)
);
}
);
width = 550;
},
{
layerId = m003;
shapes = (
{
closed = 1;
nodes = (
(20.5,117,o),
(134.5,2.5,o),
(275,2.5,cs),
(321.5,2.5,o),
(382.5,22,o),
(420,43,c),
(341.5,23,o),
(337,30,o),
(336,49,c),
(289.5,64.5,o),
(265.5,98,o),
(280.5,174,cs),
(284.5,195,o),
(290.5,201.5,o),
(300.5,210,cs),
(304,213,ls),
(321.5,227.5,o),
(340.5,227.5,o),
(354.5,222.5,cs),
(381,213,o),
(394.5,184,o),
(385,157.5,cs),
(375.5,132,o),
(342.5,133.5,o),
(356.5,159,cs),
(369.5,245.5,o),
(290,228,o),
(290,158.5,cs),
(290,92,o),
(313,60.5,o),
(383.5,60.5,cs),
(412.5,61,o),
(446,72,o),
(465.5,90.5,cs),
(511,132,o),
(530,190,o),
(530,257.5,cs),
(530,398,o),
(416,512.5,o),
(275,512,cs),
(134.5,512.5,o),
(20.5,398.5,o),
(20.5,257.5,cs)
);
},
{
closed = 1;
nodes = (
(69,-16,o),
(353.5,9,o),
(420,43,c),
(487.5,106.5,l),
(367.5,1,o),
(338,67,o),
(293,58.5,c)
);
}
);
width = 550;
},
{
layerId = m004;
shapes = (
{
closed = 1;
nodes = (
(39,117,o),
(153,2.5,o),
(293.5,2.5,cs),
(340,2.5,o),
(404,14,o),
(438.5,43,cs),
(566.5,150,o),
(415,63.5,o),
(412.5,73,c),
(524,129,o),
(429,112,o),
(419,107.5,cs),
(420.5,108,o),
(425,109,o),
(426.5,109,cs),
(427.5,109,ls),
(432,108,o),
(435,105.5,o),
(436.5,102.5,cs),
(439,97,o),
(436.5,90.5,o),
(431,88,cs),
(425.5,85.5,o),
(421,91,o),
(427,92.5,cs),
(445,98,o),
(428,112.5,o),
(417,102.5,c),
(406,94.5,o),
(335.5,51.5,o),
(406,51.5,cs),
(435,52,o),
(473,68.5,o),
(489,90.5,cs),
(525.5,140.5,o),
(548.5,190,o),
(548.5,257.5,cs),
(548.5,398,o),
(434.5,512.5,o),
(293.5,512,cs),
(153,512.5,o),
(39,398.5,o),
(39,257.5,cs)
);
},
{
closed = 1;
nodes = (
(96,-1,o),
(395.5,4,o),
(447,58,cs),
(512,126,l),
(392,20.5,o),
(362.5,65.5,o),
(320,73.5,c)
);
}
);
width = 550;
}
);
unicode = (81,113);
},
{
glyphname = R;
lastChange = "2024-05-23 11:59:15 +0000";
layers = (
{
layerId = m002;
shapes = (
{
closed = 1;
nodes = (
(473,431,o),
(425,475,o),
(368.5,492.5,c),
(268.5,520,o),
(215,507,o),
(159,475,cs),
(-11,377.5,o),
(-4,185.5,o),
(122,51.5,c),
(69,161.5,o),
(71.5,177.5,o),
(166,122.5,c),
(238,86.5,o),
(308,146.5,o),
(263,202.5,c),
(267.5,185,o),
(262.5,164,o),
(244.5,159,cs),
(217.5,152,o),
(190.5,168.5,o),
(183,194.5,cs),
(174.5,221,o),
(192,248.5,o),
(219,255,cs),
(230,259,o),
(242,257.5,o),
(252.5,251.5,c),
(283.5,238.5,o),
(295.5,210,o),
(303.5,183,cs),
(328.5,99,o),
(252,61,o),
(186,74.5,c),
(271,41.5,o),
(422,89,o),
(477,164,cs),
(525,229.5,o),
(530,307,o),
(495.5,382,cs)
);
},
{
closed = 1;
nodes = (
(26,0.5,l),
(83,0.5,l),
(133,0.5,l),
(63,379,l),
(133,490.5,l),
(26,490.5,l)
);
},
{
closed = 0;
nodes = (
(143,311,l)
);
}
);
width = 550;
},
{
layerId = m003;
shapes = (
{
closed = 1;
nodes = (
(465,419,o),
(417,469,o),
(360.5,489,c),
(313.5,506.5,o),
(204,518.5,o),
(151,484,cs),
(-11,378.5,o),
(-25.5,102.5,o),
(159,18,c),
(199.5,18,o),
(194.5,19,o),
(231,19,cs),
(314,19,o),
(356,92,o),
(330,94,c),
(298.5,89.5,o),
(304.5,61.5,o),
(326,79,cs),
(334.5,86,o),
(323.5,62.5,o),
(314,65.5,cs),
(304,68,o),
(300,80,o),
(304.5,90,cs),
(305.5,94.5,o),
(309,98.5,o),
(313,100.5,c),
(324,108,o),
(339.5,106.5,o),
(344,98,cs),
(371,45.5,o),
(266,0.5,o),
(209,14.5,c),
(294,-23,o),
(414,30.5,o),
(469,116,cs),
(518.5,193,o),
(516,293.5,o),
(487.5,363.5,cs)
);
},
{
closed = 1;
nodes = (
(104.5,66.5,l),
(117.5,72,l),
(155.5,20,l),
(55,360,l),
(170,479.5,l),
(54,364,l)
);
},
{
closed = 0;
nodes = (
(135,283,l)
);
}
);
width = 550;
},
{
layerId = m004;
shapes = (
{
closed = 1;
nodes = (
(442.5,419,o),
(394.5,469,o),
(338,489,c),
(291,506.5,o),
(175,510,o),
(122,475.5,cs),
(-56,359.5,o),
(-33,117.5,o),
(136.5,18,c),
(234.5,-5,o),
(239,-1.5,o),
(208.5,19,c),
(291.5,19,o),
(307.5,83,o),
(293.5,84,c),
(276,81,o),
(279.5,61.5,o),
(291,73.5,cs),
(295.5,78.5,o),
(289.5,62,o),
(284.5,64.5,cs),
(279,66,o),
(277,74.5,o),
(279.5,81.5,cs),
(280,84.5,o),
(282,87.5,o),
(284,89,c),
(54.5,-63,o),
(423,40.5,o),
(301,87,cs),
(306.5,85,o),
(158.5,13,o),
(153,16,cs),
(235,-27.5,o),
(391.5,30.5,o),
(446.5,116,cs),
(496,193,o),
(493.5,293.5,o),
(465,363.5,cs)
);
},
{
closed = 1;
nodes = (
(82,66.5,l),
(95,72,l),
(133,20,l),
(32.5,360,l),
(147.5,479.5,l),
(31.5,364,l)
);
},
{
closed = 0;
nodes = (
(112.5,283,l)
);
}
);
width = 550;
}
);
unicode = (82,114);
},
{
glyphname = S;
lastChange = "2024-05-23 11:59:41 +0000";
layers = (
{
layerId = m002;
shapes = (
{
closed = 1;
nodes = (
(419,0,o),
(533,114,o),
(533,255,cs),
(533,289.5,o),
(526,323,o),
(513.5,353,c),
(278.5,353,l),
(278.5,366,l),
(507.5,366,l),
(466.5,451,o),
(379,509.5,o),
(278.5,509.5,cs),
(137.5,509.5,o),
(23.5,395.5,o),
(23.5,255,cs),
(23.5,236.5,o),
(25.5,218.5,o),
(29,201.5,c),
(277.5,201.5,l),
(277.5,185,l),
(33,185,l),
(63.5,78,o),
(162,0,o),
(278.5,0,cs)
);
}
);
width = 550;
},
{
layerId = m003;
shapes = (
{
closed = 1;
nodes = (
(419,0,o),
(533,114,o),
(533,255,cs),
(533,289.5,o),
(526,323,o),
(513.5,353,c),
(399,353,l),
(399,366,l),
(507.5,366,l),
(466.5,451,o),
(379,509.5,o),
(278.5,509.5,cs),
(137.5,509.5,o),
(23.5,395.5,o),
(23.5,255,cs),
(23.5,236.5,o),
(25.5,218.5,o),
(29,201.5,c),
(105.5,201.5,l),
(105.5,185,l),
(33,185,l),
(63.5,78,o),
(162,0,o),
(278.5,0,cs)
);
}
);
width = 550;
},
{
layerId = m004;
shapes = (
{
closed = 1;
nodes = (
(433,0,o),
(547,114,o),
(547,255,cs),
(547,289.5,o),
(540,323,o),
(527.5,353,c),
(527.5,353,l),
(521.5,366,l),
(521.5,366,l),
(480.5,451,o),
(393,509.5,o),
(292.5,509.5,cs),
(151.5,509.5,o),
(37.5,395.5,o),
(37.5,255,cs),
(37.5,236.5,o),
(39.5,218.5,o),
(43,201.5,c),
(43,201.5,l),
(47,185,l),
(47,185,l),
(77.5,78,o),
(176,0,o),
(292.5,0,cs)
);
}
);
width = 550;
}
);
unicode = (83,115);
},
{
glyphname = T;
lastChange = "2024-05-23 12:00:04 +0000";
layers = (
{
layerId = m002;
shapes = (
{
closed = 1;
nodes = (
(24,117.5,o),
(133,5.5,o),
(269.5,0,c),
(241.5,13.5,o),
(218.5,37.5,o),
(207,69,cs),
(184,132,o),
(216.5,202,o),
(279.5,225,cs),
(302,233,o),
(325.5,234,o),
(346.5,229.5,cs),
(351,229,o),
(355.5,228,o),
(360,226,cs),
(362.5,225,o),
(364.5,224.5,o),
(367,223.5,c),
(365,223.5,l),
(375,218,o),
(383.5,209,o),
(387.5,197,cs),
(397,171.5,o),
(383.5,142.5,o),
(358,133,cs),
(332,123.5,o),
(303,137,o),
(293.5,163,cs),
(287.5,180.5,o),
(291,199,o),
(303,212.5,c),
(248,186,o),
(221,122.5,o),
(242.5,64.5,cs),
(253,35.5,o),
(273.5,12.5,o),
(299.5,-0.5,c),
(408.5,3,o),
(533.5,114.5,o),
(533.5,255,cs),
(533.5,268.5,o),
(532.5,281.5,o),
(530.5,294.5,c),
(281,294.5,l),
(281,509.5,l),
(279,509.5,ls),
(138,509.5,o),
(24,395.5,o),
(24,255,cs)
);
}
);
width = 550;
},
{
layerId = m003;
shapes = (
{
closed = 1;
nodes = (
(24,117.5,o),
(133,5.5,o),
(269.5,0,c),
(241.5,13.5,o),
(218,46.5,o),
(225,69,cs),
(236,104,o),
(271.5,126.5,o),
(314.5,115,cs),
(329.5,111,o),
(342,102.5,o),
(351.5,92,cs),
(354,90.5,o),
(356.5,88.5,o),
(358,85.5,cs),
(359,84,o),
(359.5,83,o),
(360.5,81.5,c),
(359.5,82,l),
(363,75.5,o),
(364,67.5,o),
(361.5,59.5,cs),
(357.5,42,o),
(335.5,42,o),
(318.5,46.5,cs),
(300.5,51,o),
(289,92,o),
(298,76.5,cs),
(332.5,16,o),
(401.5,70.5,o),
(322,98,cs),
(284,111,o),
(244,82,o),
(242.5,64.5,cs),
(240,35,o),
(273.5,12.5,o),
(299.5,-0.5,c),
(408.5,3,o),
(533.5,114.5,o),
(533.5,255,cs),
(533.5,268.5,o),
(532.5,281.5,o),
(530.5,294.5,c),
(353,400.5,l),
(281,509.5,l),
(279,509.5,ls),
(138,509.5,o),
(24,395.5,o),
(24,255,cs)
);
}
);
width = 550;
},
{
layerId = m004;
shapes = (
{
closed = 1;
nodes = (
(0.5,117.5,o),
(109.5,5.5,o),
(246,0,c),
(218,13.5,o),
(197,57,o),
(199,47.5,cs),
(219.5,-55.5,o),
(409.5,30,o),
(258,64,cs),
(248.5,66,o),
(276,59.5,o),
(282,56,cs),
(283.5,55.5,o),
(285.5,54.5,o),
(286.5,53.5,cs),
(287,53,o),
(287.5,52.5,o),
(288,52,c),
(287.5,52,l),
(289.5,50,o),
(290,47,o),
(288.5,44,cs),
(286,37.5,o),
(271.5,37.5,o),
(260.5,39,cs),
(248.5,41,o),
(241,56,o),
(247,50,cs),
(269.5,28,o),
(315,48,o),
(262.5,58,cs),
(238,63,o),
(211.5,52,o),
(210.5,46,cs),
(209,35,o),
(250,12.5,o),
(276,-0.5,c),
(385,3,o),
(510,114.5,o),
(510,255,cs),
(510,268.5,o),
(491.5,509.5,o),
(255.5,509.5,cs),
(255.5,509.5,l),
(257.5,509.5,l),
(255.5,509.5,ls),
(114.5,509.5,o),
(0.5,395.5,o),
(0.5,255,cs)
);
}
);
width = 550;
}
);
unicode = (84,116);
},
{
glyphname = U;
lastChange = "2024-05-23 12:00:28 +0000";
layers = (
{
layerId = m002;
shapes = (
{
closed = 1;
nodes = (
(405,0,o),
(504.5,114,o),
(504.5,255,cs),
(504.5,380.5,o),
(461,479.5,o),
(342,500,cs),
(310,505.5,o),
(278.5,487.5,o),
(266.5,473,cs),
(226.5,425.5,o),
(187.5,290,o),
(296.5,290,c),
(377.5,320,o),
(209.5,293.5,o),
(291,370.5,cs),
(318,396,o),
(330.5,386.5,o),
(351.5,369,cs),
(372.5,351,o),
(375.5,261.5,o),
(357.5,240.5,cs),
(349.5,231,o),
(339,225,o),
(327.5,223.5,c),
(329,222.5,l),
(326.5,223,o),
(324.5,222.5,o),
(322,222.5,cs),
(317,222.5,o),
(312.5,223,o),
(308,224,cs),
(286.5,227,o),
(221,236.5,o),
(203,309.5,cs),
(196,338,o),
(184,410,o),
(220.5,445.5,cs),
(339,561.5,o),
(32,511,o),
(32,255,cs),
(32,92,o),
(123.5,0,o),
(264.5,0,cs)
);
}
);
width = 550;
},
{
layerId = m003;
shapes = (
{
closed = 1;
nodes = (
(405,0,o),
(504.5,114,o),
(504.5,255,cs),
(504.5,380.5,o),
(461,479.5,o),
(342,500,cs),
(310,505.5,o),
(278.5,487.5,o),
(266.5,473,cs),
(226.5,425.5,o),
(235,359.5,o),
(303.5,365.5,cs),
(389.5,373,o),
(331,450.5,o),
(280.5,428,cs),
(244.5,431.5,o),
(305,452.5,o),
(332,448,cs),
(359,443,o),
(373.5,416,o),
(368.5,388.5,cs),
(366.5,378,o),
(368.5,374.5,o),
(355,361.5,c),
(353,359,l),
(350.5,358,o),
(349,356.5,o),
(346.5,355.5,cs),
(342.5,353,o),
(338.5,351,o),
(334,349.5,cs),
(314,341.5,o),
(239,320,o),
(221,393,cs),
(214,421.5,o),
(225,466.5,o),
(254.5,479,cs),
(387,535.5,o),
(32,511,o),
(32,255,cs),
(32,92,o),
(123.5,0,o),
(264.5,0,cs)
);
}
);
width = 550;
},
{
layerId = m004;
shapes = (
{
closed = 1;
nodes = (
(451,0,o),
(550.5,114,o),
(550.5,255,cs),
(550.5,380.5,o),
(507,473.5,o),
(388,500,cs),
(356,507,o),
(297.5,508.5,o),
(268.5,500,cs),
(260,469,o),
(269.5,419,o),
(300,437,cs),
(338.5,459,o),
(294.5,482.5,o),
(275.5,461,cs),
(258,455,o),
(282,478,o),
(295.5,481.5,cs),
(309,485,o),
(322,475.5,o),
(325.5,461.5,cs),
(326.5,456.5,o),
(328.5,455,o),
(325,446,c),
(324.5,444.5,l),
(323.5,443.5,o),
(323.5,442.5,o),
(322.5,441.5,cs),
(321,439.5,o),
(319.5,437.5,o),
(317.5,436,cs),
(386.5,509.5,o),
(187,515.5,o),
(255.5,431.5,cs),
(246,443.5,o),
(241.5,466.5,o),
(252.5,479,cs),
(395.5,530,o),
(78,511,o),
(78,255,cs),
(78,92,o),
(169.5,0,o),
(310.5,0,cs)
);
}
);
width = 550;
}
);
unicode = (85,117);
},
{
glyphname = V;
lastChange = "2024-05-23 12:00:52 +0000";
layers = (
{
layerId = m002;
shapes = (
{
closed = 1;
nodes = (
(417,0,o),
(531,114,o),
(531,255,cs),
(531,393.5,o),
(420.5,506,o),
(283,509.5,c),
(283,131,l),
(269.5,131,l),
(269.5,509.5,l),
(131.5,505.5,o),
(21.5,393,o),
(21.5,255,cs),
(21.5,114,o),
(135.5,0,o),
(276.5,0,cs)
);
}
);
width = 550;
},
{
layerId = m003;
shapes = (
{
closed = 1;
nodes = (
(417,0,o),
(531,114,o),
(531,255,cs),
(531,393.5,o),
(420.5,506,o),
(283,509.5,c),
(283,351,l),
(269.5,351,l),
(269.5,509.5,l),
(131.5,505.5,o),
(21.5,393,o),
(21.5,255,cs),
(21.5,114,o),
(135.5,0,o),
(276.5,0,cs)
);
}
);
width = 550;
},
{
layerId = m004;
shapes = (
{
closed = 1;
nodes = (
(398.5,0,o),
(512.5,114,o),
(512.5,255,cs),
(512.5,393.5,o),
(402,506,o),
(264.5,509.5,c),
(264.5,509.5,l),
(251,509.5,l),
(251,509.5,l),
(113,505.5,o),
(3,393,o),
(3,255,cs),
(3,114,o),
(117,0,o),
(258,0,cs)
);
}
);
width = 550;
}
);
unicode = (86,118);
},
{
glyphname = W;
lastChange = "2024-05-23 12:01:14 +0000";
layers = (
{
layerId = m002;
shapes = (
{
closed = 1;
nodes = (
(233.5,513,o),
(193,502,o),
(157,483,c),
(157,261,l),
(148,261,l),
(148,478,l),
(72.5,433.5,o),
(22,351.5,o),
(22,257.5,cs),
(22,119,o),
(133,6,o),
(271.5,3,c),
(271.5,342.5,l),
(280.5,342.5,l),
(280.5,3,l),
(419.5,5,o),
(531.5,118.5,o),
(531.5,258,cs),
(531.5,352,o),
(480.5,434.5,o),
(405,478.5,c),
(405,261,l),
(396,261,l),
(396,483.5,l),
(360.5,502.5,o),
(320,513,o),
(277,513,cs)
);
}
);
width = 550;
},
{
layerId = m003;
shapes = (
{
closed = 1;
nodes = (
(233.5,513,o),
(193,502,o),
(157,483,c),
(157,400.5,l),
(148,400.5,l),
(148,478,l),
(72.5,433.5,o),
(22,351.5,o),
(22,257.5,cs),
(22,119,o),
(133,6,o),
(271.5,3,c),
(271.5,115.5,l),
(280.5,115.5,l),
(280.5,3,l),
(419.5,5,o),
(531.5,118.5,o),
(531.5,258,cs),
(531.5,352,o),
(480.5,434.5,o),
(405,478.5,c),
(405,401,l),
(396,401,l),
(396,483.5,l),
(360.5,502.5,o),
(320,513,o),
(277,513,cs)
);
}
);
width = 550;
},
{
layerId = m004;
shapes = (
{
closed = 1;
nodes = (
(249,513,o),
(208.5,502,o),
(172.5,483,c),
(172.5,483,l),
(163.5,478,l),
(163.5,478,l),
(88,433.5,o),
(37.5,351.5,o),
(37.5,257.5,cs),
(37.5,119,o),
(148.5,6,o),
(287,3,c),
(287,3,l),
(296,3,l),
(296,3,l),
(435,5,o),
(547,118.5,o),
(547,258,cs),
(547,352,o),
(496,434.5,o),
(420.5,478.5,c),
(420.5,478.5,l),
(411.5,483.5,l),
(411.5,483.5,l),
(376,502.5,o),
(335.5,513,o),
(292.5,513,cs)
);
}
);
width = 550;
}
);
unicode = (87,119);
},
{
glyphname = X;
lastChange = "2024-05-23 12:01:35 +0000";
layers = (
{
layerId = m002;
shapes = (
{
closed = 1;
nodes = (
(291.5,39,o),
(623,-129.5,o),
(457.5,247,cs),
(456,251,l),
(457.5,255,ls),
(623,631.5,o),
(302.5,475,o),
(277,443,c),
(142,542.5,o),
(-47.5,534.5,o),
(94.5,255,cs),
(95,253.5,o),
(96,252.5,o),
(96.5,251,c),
(96,249.5,o),
(95,248.5,o),
(94.5,247,cs),
(-47.5,-32.5,o),
(142,-40.5,o),
(277,59,c)
);
},
{
closed = 1;
nodes = (
(251,202.5,o),
(228.5,225,o),
(228.5,252.5,cs),
(228.5,280,o),
(251,302.5,o),
(278.5,302.5,cs),
(306,302.5,o),
(328.5,280,o),
(328.5,252.5,cs),
(328.5,225,o),
(306,202.5,o),
(278.5,202.5,cs)
);
}
);
width = 550;
},
{
layerId = m003;
shapes = (
{
closed = 1;
nodes = (
(284,-19,o),
(573.5,-32.5,o),
(475.5,229,cs),
(474,233.5,l),
(475.5,238,ls),
(566,479,o),
(316.5,490.5,o),
(274,447.5,c),
(121.5,518,o),
(-12.5,400.5,o),
(70.5,238,cs),
(71,236,o),
(72,235,o),
(72.5,233.5,c),
(72,231.5,o),
(71,230.5,o),
(70.5,229,cs),
(1.5,93.5,o),
(123.5,-58,o),
(274,19,c)
);
},
{
closed = 1;
nodes = (
(269,223,o),
(264,228.5,o),
(264,235,cs),
(264,241.5,o),
(269,247,o),
(276,247,cs),
(282.5,247,o),
(287.5,241.5,o),
(287.5,235,cs),
(287.5,228.5,o),
(282.5,223,o),
(276,223,cs)
);
}
);
width = 550;
},
{
layerId = m004;
shapes = (
{
closed = 1;
nodes = (
);
},
{
closed = 1;
nodes = (
(381,-3.5,o),
(504.5,93,o),
(504.5,245.5,cs),
(504.5,250.5,l),
(504.5,258.5,l),
(504.5,383.5,o),
(392,509.5,o),
(255,509.5,c),
(129.5,509.5,o),
(3,407,o),
(0,255,cs),
(0,253,o),
(0,252,o),
(0.5,250.5,c),
(0,248.5,o),
(0,247.5,o),
(0,246,cs),
(0,103.5,o),
(121,2,o),
(256,0,c)
);
},
{
closed = 1;
nodes = (
(248,222,o),
(282.5,201.5,o),
(282.5,247.5,cs),
(282.5,265,o),
(251,223,o),
(258,223,cs),
(264.5,223,o),
(232.5,254,o),
(232.5,247.5,cs),
(232.5,241,o),
(257,222,o),
(250.5,222,cs)
);
}
);
width = 550;
}
);
unicode = (88,120);
},
{
glyphname = Y;
lastChange = "2024-05-23 12:01:53 +0000";
layers = (
{
layerId = m002;
shapes = (
{
closed = 1;
nodes = (
(-16,138.5,o),
(121.5,37.5,o),
(211,13.5,cs),
(345,-22,o),
(482.5,56,o),
(520,188,c),
(168.5,176.5,l),
(170.5,185,l),
(522,197,l),
(555,330.5,o),
(475,465.5,o),
(342.5,501.5,cs),
(252.5,525.5,o),
(161,497.5,o),
(99,437,cs),
(82,419,o),
(70,404,o),
(60.5,389,c),
(327,397,l),
(324.5,388,l),
(54.5,379,l),
(44.5,362,o),
(38.5,344,o),
(32.5,322.5,cs)
);
}
);
width = 550;
},
{
layerId = m003;
shapes = (
{
closed = 1;
nodes = (
(-18,137,o),
(119.5,36,o),
(209,12,cs),
(343,-23.5,o),
(480.5,54.5,o),
(518,186.5,c),
(425,185.5,l),
(427,194,l),
(520,195.5,l),
(553,329,o),
(473,464,o),
(340.5,500,cs),
(250.5,524,o),
(159,496,o),
(97,435.5,cs),
(80,417.5,o),
(68,402.5,o),
(58.5,387.5,c),
(124.5,388,l),
(122,379,l),
(52.5,377.5,l),
(42.5,360.5,o),
(36.5,342.5,o),
(30.5,321,cs)
);
}
);
width = 550;
},
{
layerId = m004;
shapes = (
{
closed = 1;
nodes = (
(8,137,o),
(145.5,36,o),
(235,12,cs),
(369,-23.5,o),
(506.5,54.5,o),
(544,186.5,c),
(544,186.5,l),
(546,195,l),
(546,195.5,l),
(579,329,o),
(499,464,o),
(366.5,500,cs),
(276.5,524,o),
(185,496,o),
(123,435.5,cs),
(106,417.5,o),
(94,402.5,o),
(84.5,387.5,c),
(81,386.5,l),
(78.5,377.5,l),
(78.5,377.5,l),
(68.5,360.5,o),
(62.5,342.5,o),
(56.5,321,cs)
);
}
);
width = 550;
}
);
unicode = (89,121);
},
{
glyphname = Z;
lastChange = "2024-05-23 12:02:13 +0000";
layers = (
{
layerId = m002;
shapes = (
{
closed = 1;
nodes = (
(414,0,o),
(525,115.5,o),
(531.5,250.5,c),
(448,250.5,l),
(442.5,228.5,o),
(423,204,o),
(399.5,204,cs),
(376,204,o),
(356.5,226.5,o),
(351,248.5,c),
(23,248.5,l),
(29.5,113.5,o),
(140.5,0,o),
(277.5,0,cs)
);
},
{
closed = 1;
nodes = (
(350.5,260.5,l),
(354,284.5,o),
(374.5,303,o),
(399.5,303,cs),
(424.5,303,o),
(445,284.5,o),
(448.5,260.5,c),
(532,260.5,l),
(529,398.5,o),
(416,509.5,o),
(277.5,509.5,cs),
(138.5,509.5,o),
(25.5,398.5,o),
(22.5,260.5,c)
);
},
{
closed = 1;
nodes = (
(346.5,241,l),
(459,262.5,l),
(458.5,269,l),
(346.5,247,l)
);
}
);
width = 550;
},
{
layerId = m003;
shapes = (
{
closed = 1;
nodes = (
);
},
{
closed = 1;
nodes = (
(413,0,o),
(524,92.5,o),
(531,257.5,c),
(447.5,257.5,l),
(442,235.5,o),
(437.5,213.5,o),
(398.5,213.5,cs),
(359.5,213.5,o),
(355,234.5,o),
(349.5,256.5,c),
(21.5,256.5,l),
(29,83.5,o),
(139.5,0,o),
(276.5,0,cs)
);
},
{
closed = 1;
nodes = (
(349.5,256.5,ls),
(351,256.5,o),
(350.5,303,o),
(398.5,303,cs),
(431.5,303,o),
(444,281.5,o),
(447.5,257.5,c),
(531,257.5,l),
(528,395.5,o),
(415,509.5,o),
(276.5,509.5,cs),
(137.5,509.5,o),
(24.5,394.5,o),
(21.5,256.5,c)
);
},
{
closed = 1;
nodes = (
(345.5,241,l),
(458,259.5,l),
(457.5,266,l),
(345.5,247,l)
);
}
);
width = 550;
},
{
layerId = m004;
shapes = (
{
closed = 1;
nodes = (
(400,0,o),
(511,92.5,o),
(518,257.5,c),
(390.5,258,l),
(389.5,255,o),
(389,252,o),
(384,252,cs),
(378.5,252,o),
(378,255,o),
(377,258,c),
(8.5,256.5,l),
(16,83.5,o),
(126.5,0,o),
(263.5,0,cs)
);
},
{
closed = 1;
nodes = (
(377,258,ls),
(377,258,o),
(377.5,247.5,o),
(384,247.5,cs),
(388,247.5,o),
(390,261.5,o),
(390.5,258,c),
(518,257.5,l),
(515,395.5,o),
(402,509.5,o),
(263.5,509.5,cs),
(124.5,509.5,o),
(11.5,394.5,o),
(8.5,256.5,c)
);
},
{
closed = 1;
nodes = (
(376.5,256,l),
(445,259.5,l),
(444.5,266,l),
(376.5,256.5,l)
);
}
);
width = 550;
}
);
unicode = (90,122);
},
{
glyphname = zero;
lastChange = "2024-05-10 16:38:40 +0000";
layers = (
{
layerId = m002;
shapes = (
{
closed = 1;
nodes = (
(494.5,0,o),
(533.5,114,o),
(533.5,255,cs),
(533.5,395.5,o),
(466.5,509.5,o),
(279,509.5,cs),
(97,509.5,o),
(24,395.5,o),
(24,255,cs),
(24,114,o),
(48,0,o),
(279,0,cs)
);
},
{
closed = 1;
nodes = (
(250.5,344.5,o),
(227.5,367.5,o),
(227.5,396,cs),
(227.5,424,o),
(250.5,447,o),
(279,447,cs),
(307,447,o),
(330,424,o),
(330,396,cs),
(330,367.5,o),
(307,344.5,o),
(279,344.5,cs)
);
}
);
width = 600;
},
{
layerId = m003;
shapes = (
{
closed = 1;
nodes = (
(418,0,o),
(532,114,o),
(532,255,cs),
(532,395.5,o),
(418,509.5,o),
(277.5,509.5,cs),
(136.5,509.5,o),
(22.5,395.5,o),
(22.5,255,cs),
(22.5,114,o),
(136.5,0,o),
(277.5,0,cs)
);
},
{
closed = 1;
nodes = (
(270.5,380.5,o),
(263.5,387.5,o),
(263.5,396,cs),
(263.5,404,o),
(270.5,411,o),
(279,411,cs),
(287,411,o),
(294,404,o),
(294,396,cs),
(294,387.5,o),
(287,380.5,o),
(279,380.5,cs)
);
}
);
width = 550;
},
{
layerId = m004;
shapes = (
{
closed = 1;
nodes = (
(418,0,o),
(532,114,o),
(532,255,cs),
(532,395.5,o),
(418,509.5,o),
(277.5,509.5,cs),
(136.5,509.5,o),
(22.5,395.5,o),
(22.5,255,cs),
(22.5,114,o),
(136.5,0,o),
(277.5,0,cs)
);
},
{
closed = 1;
nodes = (
(277,401,o),
(275.5,394,o),
(275.5,396,cs),
(275.5,397.5,o),
(277,389.5,o),
(279,389.5,cs),
(280.5,389.5,o),
(282,397.5,o),
(282,396,cs),
(282,394,o),
(280.5,401,o),
(279,401,cs)
);
}
);
width = 600;
}
);
unicode = 48;
},
{
glyphname = one;
lastChange = "2024-05-10 17:20:27 +0000";
layers = (
{
layerId = m002;
shapes = (
{
closed = 1;
nodes = (
(522.5,0,o),
(497.5,40.5,o),
(497.5,255,cs),
(497.5,395.5,o),
(383.5,509.5,o),
(243,509.5,cs),
(166,509.5,o),
(93,479,o),
(50.5,422,cs),
(32,397,o),
(34.5,360.5,o),
(46,329.5,cs),
(67,271.5,o),
(187.5,239.5,o),
(187.5,300.5,cs),
(187.5,318,o),
(155,270,o),
(148.5,287,cs),
(139,313,o),
(152.5,342,o),
(178.5,351,cs),
(204,360.5,o),
(233,347,o),
(242.5,321.5,cs),
(246.5,309.5,o),
(246.5,297.5,o),
(242,286.5,c),
(243.5,287.5,l),
(242,285.5,o),
(237.5,269.5,o),
(236,267.5,cs),
(234,263,o),
(225,237.5,o),
(222,234,cs),
(208.5,217,o),
(152,65,o),
(210.5,11,cs),
(231.5,-8,o),
(241.5,0,o),
(364.5,0,c)
);
}
);
width = 550;
},
{
layerId = m003;
shapes = (
{
closed = 1;
nodes = (
(450.5,0,o),
(504.5,194,o),
(497.5,260.5,cs),
(483,400.5,o),
(383.5,509.5,o),
(243,509.5,cs),
(166,509.5,o),
(105.5,467,o),
(63,410,cs),
(44.5,385,o),
(47,348.5,o),
(58.5,317.5,cs),
(79.5,259.5,o),
(164.5,317.5,o),
(164.5,378.5,cs),
(157,394,o),
(148.5,347.5,o),
(130,347.5,cs),
(87,347.5,o),
(82.5,394.5,o),
(102,413.5,cs),
(127.5,438.5,o),
(146,457.5,o),
(235.5,439.5,cs),
(334,419.5,o),
(326.5,281.5,o),
(322,270.5,c),
(323.5,271.5,l),
(322,269.5,o),
(299.5,149.5,o),
(190,239,cs),
(145.5,275.5,o),
(305.5,324,o),
(262.5,324,cs),
(241.5,324,o),
(52.5,312,o),
(48,198.5,cs),
(40.5,13,o),
(169.5,0,o),
(292.5,0,c)
);
}
);
width = 550;
},
{
layerId = m004;
shapes = (
{
closed = 1;
nodes = (
(525,0,o),
(544.5,194,o),
(544.5,260.5,cs),
(544.5,400.5,o),
(463.5,509.5,o),
(323.5,509.5,cs),
(193.5,509.5,o),
(123.5,459.5,o),
(97.5,402.5,cs),
(84.5,374,o),
(47,263,o),
(58.5,232,cs),
(79.5,174,o),
(211.5,317.5,o),
(211.5,378.5,cs),
(204,394,o),
(195.5,347.5,o),
(177,347.5,cs),
(134,347.5,o),
(129.5,394.5,o),
(149,413.5,cs),
(174.5,438.5,o),
(60.5,342,o),
(150,324,cs),
(248.5,304,o),
(127,249.5,o),
(122.5,238.5,c),
(194,224.5,l),
(192.5,222.5,o),
(346.5,149.5,o),
(237,239,cs),
(192.5,275.5,o),
(352.5,324,o),
(309.5,324,cs),
(288.5,324,o),
(58.5,360,o),
(58.5,246.5,cs),
(58.5,76,o),
(186.5,0,o),
(309.5,0,c)
);
}
);
width = 550;
}
);
unicode = 49;
},
{
glyphname = two;
lastChange = "2024-05-10 18:52:07 +0000";
layers = (
{
layerId = m002;
shapes = (
{
closed = 1;
nodes = (
(108.5,61,o),
(554,114,o),
(554,255,cs),
(554,395.5,o),
(440,509.5,o),
(299.5,509.5,cs),
(222.5,509.5,o),
(149.5,479,o),
(107,422,cs),
(88.5,397,o),
(91,360.5,o),
(102.5,329.5,cs),
(123.5,271.5,o),
(185,240,o),
(244,255,c),
(226.5,257.5,o),
(211.5,270,o),
(205,287,cs),
(195.5,313,o),
(209,342,o),
(235,351,cs),
(260.5,360.5,o),
(289.5,347,o),
(299,321.5,cs),
(303,309.5,o),
(303,297.5,o),
(298.5,286.5,c),
(300,287.5,l),
(298.5,285.5,o),
(298,283.5,o),
(296.5,281.5,cs),
(294.5,277,o),
(291.5,273.5,o),
(288.5,270,cs),
(275,253,o),
(256.5,240.5,o),
(234,230.5,cs),
(-455.5,-80.5,o),
(720,-3,o),
(506.5,19.5,cs)
);
}
);
width = 550;
},
{
layerId = m003;
shapes = (
{
closed = 1;
nodes = (
(429.5,27.5,o),
(513,114,o),
(513,255,cs),
(513,395.5,o),
(399,509.5,o),
(258.5,509.5,cs),
(181.5,509.5,o),
(116.5,479,o),
(74,422,cs),
(55.5,397,o),
(50,360.5,o),
(61.5,329.5,cs),
(82.5,271.5,o),
(159.5,268.5,o),
(218.5,283.5,c),
(201,286,o),
(186,298.5,o),
(179.5,315.5,cs),
(170,341.5,o),
(196.5,348.5,o),
(203.5,351,cs),
(219.5,357,o),
(248.5,347,o),
(258,321.5,cs),
(262,309.5,o),
(262,297.5,o),
(257.5,286.5,c),
(259,287.5,l),
(257.5,285.5,o),
(257,283.5,o),
(255.5,281.5,cs),
(253.5,277,o),
(250.5,273.5,o),
(247.5,270,cs),
(234,253,o),
(205,219,o),
(159,249,cs),
(-12.5,361,o),
(5,0.5,o),
(303.5,19.5,cs)
);
}
);
width = 550;
},
{
layerId = m004;
shapes = (
{
closed = 1;
nodes = (
);
},
{
closed = 1;
nodes = (
(397.5,1,o),
(475.5,123.5,o),
(475.5,255,cs),
(475.5,395.5,o),
(379.5,509.5,o),
(239,509.5,cs),
(162,509.5,o),
(108,493.5,o),
(54.5,427.5,cs),
(9.5,371.5,o),
(-1,285,o),
(2,252.5,cs),
(11.5,147,o),
(121.5,216.5,o),
(136,220,c),
(131.5,220.5,o),
(128,223.5,o),
(126.5,228,cs),
(124,234,o),
(130.5,236,o),
(132.5,236.5,cs),
(136,238,o),
(143.5,235.5,o),
(145.5,229,cs),
(146.5,226.5,o),
(146.5,223.5,o),
(145.5,220.5,c),
(146,221,l),
(145.5,220.5,o),
(145.5,220,o),
(145,219.5,cs),
(144.5,218.5,o),
(144,217.5,o),
(143,216.5,cs),
(181.5,267.5,o),
(99.5,259.5,o),
(121.5,211.5,cs),
(-7,530.5,o),
(-119,-3,o),
(266,0,cs)
);
}
);
width = 550;
}
);
unicode = 50;
},
{
glyphname = three;
lastChange = "2024-05-17 23:54:10 +0000";
layers = (
{
layerId = m002;
shapes = (
{
closed = 1;
nodes = (
(547.5,-3.5,o),
(482,122,o),
(398,255,cs),
(357.5,319,o),
(569,509.5,o),
(299.5,509.5,cs),
(222.5,509.5,o),
(154,475.5,o),
(107,422,c),
(93.5,394,o),
(91,360.5,o),
(102.5,329.5,cs),
(123.5,271.5,o),
(185,240,o),
(244,255,c),
(226.5,257.5,o),
(211.5,270,o),
(205,287,cs),
(195.5,313,o),
(209,342,o),
(235,351,cs),
(260.5,360.5,o),
(289.5,347,o),
(299,321.5,cs),
(303,309.5,o),
(303,297.5,o),
(298.5,286.5,c),
(300,287.5,l),
(298.5,285.5,o),
(298,283.5,o),
(296.5,281.5,cs),
(294.5,277,o),
(291.5,273.5,o),
(288.5,270,cs),
(275,253,o),
(161.5,206,o),
(180.5,188,cs),
(215,154.5,o),
(356.5,286.5,o),
(356.5,156.5,cs),
(356.5,109,o),
(247,20,o),
(176.5,120.5,cs),
(125.5,193.5,o),
(85,3,o),
(299.5,0,cs)
);
}
);
width = 550;
},
{
layerId = m003;
shapes = (
{
closed = 1;
nodes = (
);
},
{
closed = 1;
nodes = (
(547.5,9,o),
(482,122,o),
(398,255,cs),
(357.5,319,o),
(569,509.5,o),
(299.5,509.5,cs),
(222.5,509.5,o),
(154,475.5,o),
(107,422,c),
(93.5,394,o),
(91,360.5,o),
(102.5,329.5,cs),
(123.5,271.5,o),
(227,247,o),
(262,313.5,c),
(238.5,296,o),
(222,292,o),
(216.5,309,cs),
(209.5,331,o),
(214,341.5,o),
(240,351,cs),
(265.5,360.5,o),
(289.5,347,o),
(299,321.5,cs),
(303,309.5,o),
(303,297.5,o),
(298.5,286.5,c),
(300,287.5,l),
(298.5,285.5,o),
(298,283.5,o),
(296.5,281.5,cs),
(294.5,277,o),
(291.5,273.5,o),
(288.5,270,cs),
(275,253,o),
(161.5,229,o),
(180.5,211,cs),
(215,177.5,o),
(335,243,o),
(288.5,179.5,cs),
(262.5,144,o),
(94,153,o),
(150,238,cs),
(218.5,342,o),
(-94.5,-14,o),
(299.5,0,cs)
);
}
);
width = 550;
},
{
layerId = m004;
shapes = (
{
closed = 1;
nodes = (
);
},
{
closed = 1;
nodes = (
);
},
{
closed = 1;
nodes = (
(535.5,0,o),
(540,206.5,o),
(540,264,cs),
(540,346.5,o),
(486.5,509.5,o),
(311.5,509.5,cs),
(220.5,509.5,o),
(136.5,481.5,o),
(89.5,349,c),
(60,213.5,o),
(93.5,299,o),
(105,268,cs),
(134.5,187,o),
(230,157.5,o),
(256,250,c),
(241.5,239,o),
(231.5,236.5,o),
(228,247,cs),
(223.5,260.5,o),
(226.5,267.5,o),
(242.5,273,cs),
(48.5,200.5,o),
(360,46.5,o),
(279.5,255,cs),
(282,247.5,o),
(282,240,o),
(279,233,c),
(280,233.5,l),
(279,232.5,o),
(278.5,231,o),
(278,230,cs),
(276.5,227,o),
(274.5,225,o),
(273,222.5,cs),
(264.5,212,o),
(193.5,197,o),
(205.5,186,cs),
(227,165,o),
(302,206,o),
(273,166,cs),
(256.5,144,o),
(119,234.5,o),
(111.5,339.5,cs),
(103,466.5,o),
(-35,0,o),
(313.5,0,cs)
);
}
);
width = 550;
}
);
unicode = 51;
},
{
glyphname = four;
lastChange = "2024-05-23 06:20:49 +0000";
layers = (
{
layerId = m002;
shapes = (
{
closed = 1;
nodes = (
(497.5,0,o),
(499,149.5,o),
(499,248.5,cs),
(499,325.5,o),
(536.5,507,o),
(300,498.5,cs),
(160.5,493.5,o),
(-58,188,o),
(187.5,188,cs),
(536,188,o),
(221.5,0,o),
(359.5,0,cs)
);
},
{
closed = 1;
nodes = (
(285.759,312,o),
(265.5,332.595,o),
(265.5,358,cs),
(265.5,383.405,o),
(285.759,404,o),
(310.75,404,cs),
(335.741,404,o),
(356,383.405,o),
(356,358,cs),
(356,332.595,o),
(335.741,312,o),
(310.75,312,cs)
);
}
);
width = 600;
},
{
layerId = m003;
shapes = (
{
closed = 1;
nodes = (
(161.5,-34,o),
(554,-7.5,o),
(547.5,259,cs),
(545.5,336,o),
(536.5,492.5,o),
(300,498.5,cs),
(-319.5,514,o),
(448,-3,o),
(232.5,270,cs),
(140,387,o),
(534.5,213.5,o),
(275.5,41.5,cs)
);
},
{
closed = 1;
nodes = (
(259,383,o),
(302.5,333,o),
(278.5,349.5,cs),
(257,364.5,o),
(286,404,o),
(311,404,cs),
(335.5,404,o),
(356,383.5,o),
(356,358,cs),
(356,332.5,o),
(335.5,383,o),
(311,383,cs)
);
}
);
width = 600;
},
{
layerId = m004;
shapes = (
{
closed = 1;
nodes = (
);
},
{
closed = 1;
nodes = (
(-194.5,370.5,o),
(104.5,-218.5,o),
(435,88,cs),
(581.5,224,o),
(447,547.5,o),
(231.5,500,c),
(-83,501.5,o),
(496,-148.5,o),
(348,137,cs),
(316,198.5,o),
(484,591,o),
(171.5,489.5,cs)
);
},
{
closed = 1;
nodes = (
(220.5,383,o),
(264,333,o),
(240,349.5,cs),
(218.5,364.5,o),
(302,325.5,o),
(327,325.5,cs),
(351.5,325.5,o),
(317.5,383.5,o),
(317.5,358,cs),
(317.5,332.5,o),
(297,383,o),
(272.5,383,cs)
);
}
);
width = 550;
}
);
note = four;
unicode = 52;
},
{
glyphname = five;
lastChange = "2024-05-23 06:32:01 +0000";
layers = (
{
layerId = m002;
shapes = (
{
closed = 1;
nodes = (
(459.5,0,o),
(535.5,152.5,o),
(480,244,cs),
(425,335.5,o),
(182,376,o),
(286,371,cs),
(603,356,o),
(545.5,500,o),
(279,500,cs),
(75,500,o),
(53,511,o),
(53,321.5,cs),
(53,266.5,o),
(145,288,o),
(183.5,280.5,cs),
(399.5,238,o),
(170.5,33.5,o),
(91,203,cs),
(44.5,302,o),
(-14.5,0,o),
(238.5,0,cs)
);
}
);
width = 550;
},
{
layerId = m003;
shapes = (
{
closed = 1;
nodes = (
(468,0,o),
(575,274,o),
(410,244,cs),
(305,225,o),
(344.5,479.5,o),
(376.5,382.5,cs),
(462,123,o),
(494,500,o),
(287.5,500,cs),
(103,500,o),
(61.5,350.5,o),
(61.5,313.5,cs),
(61.5,28.5,o),
(137.5,332.5,o),
(230,325,cs),
(484.5,305,o),
(59,-17.5,o),
(236,246,cs),
(361,432,o),
(-240,0,o),
(247,0,cs)
);
}
);
width = 550;
},
{
layerId = m004;
shapes = (
{
closed = 1;
nodes = (
(560.5,0,o),
(595.5,361.5,o),
(482.5,259,cs),
(402.5,186.5,o),
(357.5,479.5,o),
(389.5,382.5,cs),
(552.5,-112.5,o),
(667,500,o),
(302.5,500,cs),
(118,500,o),
(38,373.5,o),
(47.5,208.5,cs),
(59.5,0,o),
(254.5,324,o),
(243,325,cs),
(217,327,o),
(635.5,29.5,o),
(527,301.5,cs),
(298,876,o),
(-298.5,0,o),
(315.5,0,cs)
);
}
);
width = 550;
}
);
note = five;
unicode = 53;
},
{
glyphname = six;
lastChange = "2024-05-23 06:38:08 +0000";
layers = (
{
layerId = m002;
shapes = (
{
closed = 1;
nodes = (
(459,0,o),
(522.5,139.5,o),
(494.5,223.5,cs),
(436,398.5,o),
(173,201.5,o),
(173,364,cs),
(173,426.5,o),
(304.5,501,o),
(330,440,cs),
(409,251,o),
(628.5,500,o),
(272.5,500,cs),
(143.5,500,o),
(39,395.5,o),
(39,266.5,cs),
(39,137.5,o),
(144,0,o),
(272.5,0,cs)
);
},
{
closed = 1;
nodes = (
(303.901,91,o),
(287,107.901,o),
(287,128.75,cs),
(287,149.599,o),
(303.901,166.5,o),
(324.75,166.5,cs),
(345.599,166.5,o),
(362.5,149.599,o),
(362.5,128.75,cs),
(362.5,107.901,o),
(345.599,91,o),
(324.75,91,cs)
);
}
);
width = 550;
},
{
layerId = m003;
shapes = (
{
closed = 1;
nodes = (
(459,0,o),
(550.5,262,o),
(474.5,305.5,cs),
(135,500,o),
(409.5,60,o),
(173,268.5,cs),
(44.5,381.5,o),
(531,481,o),
(309.5,396.5,cs),
(15,284.5,o),
(810,500,o),
(272.5,500,cs),
(143.5,500,o),
(39,395.5,o),
(39,266.5,cs),
(39,44.5,o),
(144,0,o),
(272.5,0,cs)
);
},
{
closed = 1;
nodes = (
(304,91,o),
(287,108,o),
(287,129,cs),
(287,149.5,o),
(287,111.5,o),
(308,111.5,cs),
(328.5,111.5,o),
(362.5,149.5,o),
(362.5,129,cs),
(362.5,108,o),
(345.5,91,o),
(325,91,cs)
);
}
);
width = 550;
},
{
layerId = m004;
shapes = (
{
closed = 1;
nodes = (
(518,0,o),
(495.5,297.5,o),
(429.5,400,cs),
(296,607,o),
(190,392.5,o),
(147,349.5,cs),
(10.5,247.5,o),
(469.5,481.5,o),
(248,397,cs),
(-198,227,o),
(673.5,502.5,o),
(211,500.5,cs),
(85.5,500,o),
(2.5,395.5,o),
(2.5,266.5,cs),
(2.5,145.5,o),
(28.5,0,o),
(236,0,cs)
);
},
{
closed = 1;
nodes = (
(330,102.5,o),
(250.5,108,o),
(250.5,129,cs),
(250.5,149.5,o),
(266.5,91.5,o),
(271.5,111.5,cs),
(280,146.5,o),
(207.5,149.5,o),
(207.5,129,cs),
(207.5,108,o),
(250.5,78.5,o),
(309,96,cs)
);
}
);
width = 550;
}
);
note = six;
unicode = 54;
},
{
glyphname = seven;
lastChange = "2024-05-23 06:44:24 +0000";
layers = (
{
layerId = m002;
shapes = (
{
closed = 1;
nodes = (
(131,-30.5,o),
(217,72,o),
(354,202.5,cs),
(523,363.5,o),
(586,518.5,o),
(270.5,499.5,cs),
(-120,476.5,o),
(168,180.5,o),
(168,432,cs),
(168,500,o),
(327.5,466.5,o),
(348.5,393,cs),
(383.5,269.5,o),
(306,217.5,o),
(255,181,cs),
(81,56.5,o),
(-9.5,306,o),
(114.5,9,cs)
);
}
);
width = 550;
},
{
layerId = m003;
shapes = (
{
closed = 1;
nodes = (
(120.5,0,o),
(286.5,-36.5,o),
(423.5,94,cs),
(592.5,255,o),
(458.5,529.5,o),
(286.5,499.5,cs),
(-365,386,o),
(612,134.5,o),
(244,396.5,cs),
(169,450,o),
(343.5,466.5,o),
(364.5,393,cs),
(399.5,269.5,o),
(315,246.5,o),
(259,243.5,cs),
(89.5,234.5,o),
(-15,568,o),
(110.5,42,cs)
);
}
);
width = 550;
},
{
layerId = m004;
shapes = (
{
closed = 1;
nodes = (
);
},
{
closed = 1;
nodes = (
(24.5,-3.5,o),
(356,-51,o),
(479.5,66.5,cs),
(634.5,214,o),
(516.5,512,o),
(295,500,cs),
(-116.5,478,o),
(100,-106.5,o),
(321.5,327,cs),
(344.5,372,o),
(268.5,363.5,o),
(289.5,290,cs),
(324.5,166.5,o),
(362,281,o),
(306,278,cs),
(136.5,269,o),
(80.5,497,o),
(57.5,291.5,cs)
);
}
);
width = 550;
}
);
note = seven;
unicode = 55;
},
{
glyphname = eight;
lastChange = "2024-05-23 12:11:00 +0000";
layers = (
{
layerId = m002;
shapes = (
{
closed = 1;
nodes = (
(391.5,0,o),
(489,30,o),
(489,172.5,cs),
(489,296,o),
(391.5,329,o),
(271,329,cs),
(151,329,o),
(53,289.5,o),
(53,161.5,cs),
(53,26.5,o),
(151,0,o),
(271,0,cs)
);
},
{
closed = 1;
nodes = (
(255.5,227.5,o),
(246,236.5,o),
(246,248,cs),
(246,259,o),
(255.5,268.5,o),
(267,268.5,cs),
(278.5,268.5,o),
(288,259,o),
(288,248,cs),
(288,236.5,o),
(278.5,227.5,o),
(267,227.5,cs)
);
},
{
closed = 1;
nodes = (
(361.5,266.5,o),
(438,319,o),
(438,383.5,cs),
(438,484,o),
(361.5,500,o),
(266.5,500,cs),
(172,500,o),
(95,484,o),
(95,383.5,cs),
(95,319,o),
(172,266.5,o),
(266.5,266.5,cs)
);
},
{
closed = 1;
nodes = (
(255.5,400.5,o),
(246,409.5,o),
(246,421,cs),
(246,432.5,o),
(255.5,441.5,o),
(267,441.5,cs),
(278.5,441.5,o),
(288,432.5,o),
(288,421,cs),
(288,409.5,o),
(278.5,400.5,o),
(267,400.5,cs)
);
}
);
width = 550;
},
{
layerId = m003;
shapes = (
{
closed = 1;
nodes = (
(391.5,0,o),
(489,84,o),
(489,226.5,cs),
(489,350,o),
(185.5,536.5,o),
(271,453.5,cs),
(406,322.5,o),
(53,414,o),
(53,286,cs),
(53,151,o),
(151,0,o),
(271,0,cs)
);
},
{
closed = 1;
nodes = (
(263,217.5,o),
(246,236.5,o),
(246,248,cs),
(246,259,o),
(255.5,241.5,o),
(267,241.5,cs),
(278.5,241.5,o),
(288,259,o),
(288,248,cs),
(288,236.5,o),
(286,217.5,o),
(274.5,217.5,cs)
);
},
{
closed = 1;
nodes = (
(363.5,283.5,o),
(438,319,o),
(438,383.5,cs),
(438,426,o),
(361.5,500,o),
(266.5,500,cs),
(81,500,o),
(95,342.5,o),
(95,383.5,cs),
(95,319,o),
(174,283.5,o),
(268.5,283.5,cs)
);
},
{
closed = 1;
nodes = (
(255.5,400.5,o),
(246,409.5,o),
(246,421,cs),
(246,429,o),
(255.5,423.5,o),
(267,423.5,cs),
(278.5,423.5,o),
(288,432.5,o),
(288,421,cs),
(288,409.5,o),
(278.5,400.5,o),
(267,400.5,cs)
);
}
);
width = 550;
},
{
layerId = m004;
shapes = (
{
closed = 1;
nodes = (
(350.5,0,o),
(476.5,84,o),
(476.5,226.5,cs),
(476.5,350,o),
(144.5,536.5,o),
(230,453.5,cs),
(365,322.5,o),
(14.5,395,o),
(8.5,233.5,cs),
(4,116.5,o),
(110,0,o),
(230,0,cs)
);
},
{
closed = 1;
nodes = (
(222,217.5,o),
(235,208.5,o),
(235,220,cs),
(235,231,o),
(214.5,227,o),
(226,227,cs),
(237.5,227,o),
(197,230.5,o),
(197,219.5,cs),
(197,208,o),
(245,217.5,o),
(233.5,217.5,cs)
);
},
{
closed = 1;
nodes = (
(322.5,283.5,o),
(476,173,o),
(476,237.5,cs),
(476,452.5,o),
(352,500,o),
(242,500,cs),
(-9,500,o),
(9,203,o),
(9,242.5,cs),
(9,178,o),
(133,283.5,o),
(227.5,283.5,cs)
);
},
{
closed = 1;
nodes = (
(211.5,414,o),
(210.5,412.5,o),
(215,414,cs),
(218,415,o),
(208.5,413,o),
(208.5,412.5,cs),
(208.5,410,o),
(214,410.5,o),
(212.5,410.5,cs),
(210.5,410.5,o),
(211.5,410,o),
(211.5,413,cs)
);
}
);
width = 550;
}
);
note = eight;
unicode = 56;
},
{
glyphname = nine;
lastChange = "2024-05-23 06:55:15 +0000";
layers = (
{
layerId = m002;
shapes = (
{
closed = 1;
nodes = (
(375.5,0,o),
(502.5,112,o),
(502.5,250,cs),
(502.5,388,o),
(456,502.5,o),
(261,500,cs),
(60,497.5,o),
(-24.5,323.5,o),
(92.5,250,cs),
(172,200,o),
(353,304,o),
(353,217,cs),
(353,-44.5,o),
(52,5.5,o),
(163,116.5,cs),
(218,171,o),
(81,213.5,o),
(48.5,88,cs),
(25,-2.5,o),
(211.5,0,o),
(261,0,cs)
);
},
{
closed = 1;
nodes = (
(253.64,376.5,o),
(242,388.14,o),
(242,402.5,cs),
(242,416.86,o),
(253.64,428.5,o),
(268,428.5,cs),
(282.36,428.5,o),
(294,416.86,o),
(294,402.5,cs),
(294,388.14,o),
(282.36,376.5,o),
(268,376.5,cs)
);
}
);
width = 550;
},
{
layerId = m003;
shapes = (
{
closed = 1;
nodes = (
(375.5,6.5,o),
(502.5,112,o),
(502.5,250,cs),
(502.5,388,o),
(414,499.5,o),
(261,500,cs),
(56,500.5,o),
(30.5,289,o),
(92.5,250,cs),
(172,200,o),
(347.5,455.5,o),
(353,217,cs),
(359,-44.5,o),
(71.5,116.5,o),
(229,90.5,cs),
(486,48.5,o),
(224.5,392,o),
(83,200,cs),
(27,124,o),
(107.5,-9,o),
(261,0,cs)
);
},
{
closed = 1;
nodes = (
(261,396.5,o),
(260,399,o),
(260,406.5,cs),
(260,408,o),
(261,414,o),
(266.5,414,cs),
(274,414,o),
(275.5,410,o),
(275.5,405,cs),
(275.5,399,o),
(274.5,396.5,o),
(267.5,396.5,cs)
);
}
);
width = 550;
},
{
layerId = m004;
shapes = (
{
closed = 1;
nodes = (
);
},
{
closed = 1;
nodes = (
(480.5,0,o),
(546,112,o),
(546,250,cs),
(546,388,o),
(457.5,501.5,o),
(304.5,500,cs),
(113,498,o),
(98,274,o),
(136,250,cs),
(215.5,200,o),
(391,455.5,o),
(396.5,217,cs),
(402.5,-44.5,o),
(130,63,o),
(288,35,cs),
(515.5,-5.5,o),
(595,623,o),
(198.5,475,cs),
(16.5,407,o),
(49.5,0,o),
(316.5,0,cs)
);
},
{
closed = 1;
nodes = (
(304.5,396.5,o),
(303.5,399,o),
(303.5,406.5,cs),
(303.5,408,o),
(315.5,416,o),
(310,414,cs),
(260.5,396.5,o),
(310.5,393,o),
(310.5,388,cs),
(310.5,382,o),
(318,396.5,o),
(311,396.5,cs)
);
}
);
width = 550;
}
);
note = nine;
unicode = 57;
},
{
export = 0;
glyphname = pixel;
lastChange = "2024-05-10 16:53:36 +0000";
layers = (
{
layerId = m002;
shapes = (
{
closed = 1;
nodes = (
(50,0,l),
(50,50,l),
(0,50,l),
(0,0,l)
);
}
